<?xml version="1.0" standalone="no"?>
<!DOCTYPE svg PUBLIC "-//W3C//DTD SVG 20010904//EN"
 "http://www.w3.org/TR/2001/REC-SVG-20010904/DTD/svg10.dtd">
<svg version="1.0" xmlns="http://www.w3.org/2000/svg"
 width="1061.000000pt" height="1483.000000pt" viewBox="0 0 1061.000000 1483.000000"
 preserveAspectRatio="xMidYMid meet">
<metadata>
Created by potrace 1.16, written by Peter Selinger 2001-2019
</metadata>
<g transform="translate(0.000000,1483.000000) scale(0.100000,-0.100000)"
fill="#000000" stroke="none">
<path d="M5050 14784 c-65 -18 -142 -65 -171 -105 -26 -37 -36 -36 -57 1 -21
37 -30 38 -42 4 -6 -14 -25 -45 -44 -70 -19 -25 -36 -50 -38 -56 -2 -6 -33 19
-68 54 -152 151 -373 187 -567 92 -74 -36 -163 -121 -197 -187 -27 -54 -28
-55 -59 -46 -85 24 -227 0 -319 -54 -164 -96 -266 -339 -214 -510 14 -46 14
-46 -45 -82 -191 -118 -270 -365 -184 -579 26 -66 27 -69 9 -79 -94 -53 -195
-212 -214 -340 -20 -128 21 -260 108 -351 46 -48 47 -48 17 -41 -89 21 -166
26 -318 21 -169 -6 -169 -6 -220 38 -144 121 -311 145 -409 58 -15 -12 -36
-14 -113 -9 -190 13 -509 -24 -625 -71 -58 -24 -169 -161 -233 -288 -158 -313
-187 -803 -73 -1219 14 -49 24 -90 23 -90 -15 -9 -180 15 -200 28 -44 28 -47
23 -47 -76 0 -111 21 -199 59 -247 33 -42 103 -80 147 -80 30 0 32 -2 36 -42
3 -24 2 -46 -1 -50 -3 -3 -58 -11 -121 -18 -142 -14 -214 -32 -300 -75 -184
-92 -258 -204 -278 -417 -8 -83 -15 -108 -51 -179 -44 -88 -52 -144 -30 -208
22 -61 77 -63 59 -1 -20 69 29 135 120 164 30 10 72 30 95 46 22 16 50 31 62
35 23 6 23 6 6 -37 -8 -24 -16 -77 -17 -118 -1 -64 -5 -79 -24 -100 -34 -36
-58 -87 -72 -153 -17 -72 -6 -126 50 -245 51 -108 56 -141 35 -222 -26 -99 -2
-200 60 -248 32 -25 34 -10 -29 -170 -466 -1184 -473 -2441 -20 -3638 69 -183
161 -392 230 -521 30 -56 54 -105 54 -107 0 -3 -19 2 -42 10 -258 91 -570 -97
-645 -389 -26 -105 -1 -256 57 -337 22 -31 22 -31 0 -81 -79 -185 8 -401 222
-547 39 -27 47 -38 53 -74 4 -24 16 -74 27 -111 38 -129 2 -187 -123 -201
-198 -20 -337 -222 -271 -393 20 -52 20 -54 1 -103 -64 -170 40 -368 196 -375
31 -1 48 -10 78 -38 54 -52 127 -72 199 -55 70 17 83 51 16 42 -33 -4 -51 0
-75 15 -53 33 -37 57 17 26 37 -21 109 -19 149 6 32 20 34 20 70 2 69 -34 168
-15 204 40 18 28 7 61 -15 39 -28 -28 -108 -7 -108 28 0 28 15 33 73 20 140
-31 307 125 325 306 l7 64 50 -61 c110 -134 285 -283 459 -391 76 -47 76 -47
76 -95 0 -97 37 -172 112 -228 38 -29 38 -29 16 -52 -19 -21 -27 -22 -92 -17
-71 6 -185 -14 -213 -38 -8 -6 -42 -8 -91 -3 -53 4 -92 3 -120 -6 -51 -15
-112 -64 -112 -90 0 -24 6 -24 32 1 28 26 83 28 73 3 -4 -10 -9 -25 -12 -33
-3 -11 -19 -15 -56 -16 -63 -1 -121 -29 -165 -79 -18 -20 -32 -39 -32 -44 0
-19 15 -20 35 -1 11 11 36 23 55 26 31 7 33 6 27 -17 -4 -13 -7 -36 -7 -51 0
-25 -4 -28 -33 -28 -82 0 -197 -71 -197 -121 0 -20 0 -20 29 0 37 27 86 29 76
3 -4 -9 -10 -26 -12 -38 -4 -16 -17 -23 -62 -32 -88 -18 -173 -88 -157 -128 5
-12 11 -11 34 6 16 12 48 24 72 27 40 6 43 5 35 -13 -5 -10 -8 -31 -8 -45 0
-23 -6 -26 -56 -38 -84 -19 -135 -53 -161 -106 -21 -44 -21 -75 0 -75 6 0 15
11 20 25 5 13 23 31 40 40 30 16 30 16 30 -35 0 -137 227 -226 401 -156 53 21
71 24 98 16 37 -10 104 1 149 24 22 12 31 11 66 -5 59 -27 244 -26 352 1 111
28 253 102 439 231 270 187 344 217 570 229 251 14 373 70 441 202 27 52 31
207 7 283 -16 52 -17 65 -6 95 42 116 -89 289 -219 290 -35 0 -37 5 -27 75 17
120 -31 227 -149 335 -36 33 -60 60 -53 60 6 0 11 4 11 9 0 11 -59 33 -71 26
-4 -3 -53 8 -109 25 -207 61 -292 60 -486 -5 -19 -6 -22 -2 -28 44 -12 92
-100 160 -206 161 -37 0 -113 30 -124 49 -16 25 -23 -2 -19 -61 4 -47 0 -82
-17 -136 -30 -101 -14 -187 41 -226 22 -15 22 -15 -11 -43 -55 -46 -108 -121
-126 -178 -10 -30 -21 -55 -25 -55 -17 0 -223 144 -310 218 -220 185 -355 379
-438 633 -65 198 -92 222 -295 264 -257 52 -418 149 -524 314 -70 108 -80 229
-28 335 26 54 26 54 -8 105 -167 247 16 619 339 692 113 25 288 -20 321 -83
25 -48 212 -335 283 -433 302 -420 694 -820 1106 -1130 527 -395 958 -623
1562 -825 177 -59 177 -59 174 -98 -1 -22 3 -58 9 -81 9 -34 8 -48 -4 -73 -9
-17 -16 -37 -16 -43 0 -15 -48 -49 -71 -51 -87 -6 -193 -83 -229 -166 -50
-116 -26 -289 51 -371 27 -27 39 -49 39 -69 0 -44 54 -95 115 -109 51 -12 58
-15 110 -49 35 -23 68 -26 84 -6 10 12 7 17 -16 28 -48 23 -60 65 -38 136 6
19 4 22 -19 22 -29 0 -56 -41 -56 -86 0 -27 -1 -27 -15 -8 -8 10 -15 28 -15
39 0 14 -10 25 -30 32 -73 28 -100 201 -49 313 14 30 44 73 67 95 23 21 42 43
42 47 0 20 -28 4 -71 -41 -117 -121 -123 -315 -13 -428 63 -65 59 -88 -11 -59
-40 17 -68 65 -59 101 5 20 1 26 -19 34 -83 32 -129 249 -77 367 34 79 144
154 224 154 13 0 31 9 41 20 18 20 18 20 42 -15 84 -124 325 -144 417 -35 29
35 26 62 -4 35 -73 -66 -350 29 -350 120 0 27 -14 34 -24 10 -24 -64 117 -158
262 -174 55 -6 56 -7 32 -21 -64 -36 -224 -7 -288 53 -46 43 -53 68 -31 116
14 31 16 48 9 61 -13 25 -13 130 0 130 6 0 43 -9 84 -20 113 -30 332 -77 423
-91 89 -13 94 -17 95 -81 0 -18 5 -38 10 -45 12 -15 2 -69 -19 -101 -13 -21
-13 -26 4 -44 28 -31 25 -139 -6 -201 -54 -110 -177 -199 -278 -201 -40 0 -53
-4 -56 -18 -7 -26 -56 -34 -90 -14 -16 9 -32 15 -34 12 -6 -6 17 -89 29 -104
17 -21 1 -26 -41 -13 -115 34 -165 248 -92 395 33 67 35 90 7 67 -74 -61 -85
-263 -23 -399 34 -75 164 -126 222 -88 26 17 26 40 0 29 -9 -3 -26 2 -40 11
-29 19 -34 58 -7 55 40 -4 63 2 79 21 12 14 30 20 58 20 41 0 142 43 181 77
110 96 168 260 122 347 -14 26 -14 33 0 67 12 31 13 52 5 111 -6 40 -10 74 -8
75 3 5 214 -23 220 -29 12 -11 -8 -60 -27 -67 -15 -5 -21 -18 -22 -47 -2 -28
-18 -66 -53 -124 -154 -259 -176 -557 -58 -791 32 -62 151 -189 211 -225 23
-13 50 -34 60 -45 27 -30 168 -98 217 -105 23 -3 66 -13 95 -21 29 -8 58 -13
65 -10 6 2 30 -5 52 -16 41 -21 126 -30 307 -31 73 -1 91 2 115 20 15 11 45
24 65 28 21 4 50 17 65 30 15 13 42 30 60 39 35 19 73 62 73 85 0 8 16 32 34
53 19 21 40 57 46 81 6 24 17 66 26 94 8 28 12 57 9 65 -3 8 1 34 10 58 16 48
20 101 6 101 -4 0 -11 -18 -14 -40 -7 -58 -45 -128 -93 -177 -24 -24 -38 -45
-33 -49 6 -3 30 15 55 40 48 50 55 47 25 -13 -19 -36 -65 -82 -107 -107 -10
-7 -16 -15 -12 -19 4 -5 31 6 59 23 50 32 50 32 27 -10 -17 -31 -36 -47 -76
-65 -55 -26 -63 -48 -12 -33 40 12 38 -1 -9 -43 -28 -25 -53 -38 -85 -42 -39
-6 -66 -25 -36 -25 6 0 10 -4 10 -9 0 -14 -107 -34 -141 -27 -34 7 -39 -11 -7
-23 19 -7 15 -9 -24 -15 -57 -9 -170 10 -221 36 -45 22 -58 17 -32 -12 17 -19
17 -20 1 -20 -26 0 -120 47 -141 70 -25 27 -50 27 -35 0 8 -15 8 -20 -2 -20
-22 1 -92 36 -107 53 -19 23 -34 21 -26 -3 13 -42 -86 3 -110 50 -17 34 -40
41 -32 10 13 -49 -73 20 -99 81 -20 44 -40 53 -30 13 13 -52 -62 14 -89 79
-15 37 -39 53 -29 20 3 -11 -5 -5 -20 12 -77 90 -122 238 -120 400 2 175 31
268 154 495 22 41 52 103 67 138 26 57 30 62 53 57 14 -3 168 -8 343 -12 317
-6 317 -6 324 -31 8 -32 -29 -149 -62 -193 -96 -133 -129 -230 -123 -357 7
-129 75 -243 156 -258 20 -4 36 -14 40 -25 7 -18 9 -18 39 4 52 36 49 46 -11
40 -217 -22 -281 350 -96 560 40 46 80 155 80 217 0 50 0 50 66 50 59 0 65 -2
59 -17 -16 -39 -17 -120 -2 -154 8 -19 17 -70 20 -114 6 -130 74 -242 198
-326 31 -21 60 -46 64 -56 28 -67 21 -152 -16 -205 -28 -38 -14 -51 17 -15 30
36 48 101 40 155 -7 51 -45 122 -66 122 -8 0 -43 25 -77 56 -90 80 -138 178
-139 285 0 52 -5 83 -15 95 -38 46 -2 184 49 184 46 0 300 39 455 70 81 17
152 30 157 30 14 0 13 -114 -2 -145 -15 -34 -1 -45 21 -16 14 18 23 22 42 16
84 -25 205 -129 247 -212 52 -100 33 -268 -26 -232 -16 10 -18 17 -11 36 17
46 6 141 -20 183 -19 28 -22 2 -7 -44 22 -65 20 -104 -9 -154 -24 -43 -24 -43
-3 -83 23 -44 20 -90 -8 -121 -15 -16 -15 -18 0 -24 36 -14 86 60 86 125 0 26
9 53 24 76 53 78 41 181 -35 294 -57 85 -189 180 -251 181 -15 0 -18 10 -18
65 0 64 0 64 43 75 701 181 1277 459 1855 894 525 396 1032 953 1344 1479 50
83 72 101 155 127 231 71 480 -79 524 -316 17 -92 -10 -224 -58 -276 -14 -15
-15 -22 -5 -36 112 -158 62 -390 -123 -578 -131 -132 -258 -190 -440 -201
-127 -8 -126 -7 -244 -246 -177 -358 -446 -701 -720 -919 -77 -62 -91 -63 -91
-8 0 30 -48 134 -91 196 -17 25 -29 47 -27 48 1 2 17 11 35 20 77 39 107 143
69 238 -28 69 -32 111 -16 153 14 38 3 48 -28 27 -43 -30 -61 -34 -172 -41
-156 -11 -223 -55 -237 -159 -5 -39 -5 -39 -52 -21 -413 157 -920 -105 -817
-422 10 -28 16 -52 14 -53 -2 -2 -28 -8 -60 -15 -212 -46 -351 -241 -261 -367
19 -26 20 -35 11 -84 -52 -283 218 -517 637 -551 380 -31 425 -43 673 -170
287 -147 496 -185 589 -104 27 22 27 22 82 3 65 -23 124 -19 153 10 18 17 23
18 71 5 87 -22 199 -8 287 37 38 20 90 76 90 98 0 38 72 -20 75 -60 2 -30 21
-34 35 -7 47 87 -64 189 -220 205 -56 5 -70 10 -70 23 0 9 -5 22 -11 28 -16
16 -2 33 28 33 38 0 111 -38 118 -61 9 -27 29 -19 33 13 4 32 -44 90 -90 108
-18 7 -42 22 -54 32 -18 16 -47 24 -160 44 -16 3 -21 11 -21 34 0 48 69 41
134 -14 21 -17 43 -15 43 5 0 5 -16 27 -36 49 -44 48 -108 79 -184 87 -51 5
-56 8 -72 40 -16 35 -16 35 5 29 12 -3 27 -6 34 -6 6 0 25 -11 41 -25 33 -27
50 -19 32 14 -32 60 -150 114 -317 147 -162 31 -245 38 -306 26 -47 -9 -49 -9
-89 27 -41 37 -41 37 -6 58 63 37 118 133 118 204 0 20 9 34 33 50 184 129
449 415 629 679 16 24 17 23 17 -50 0 -188 140 -352 304 -356 79 -2 87 -7 62
-34 -28 -31 -103 -22 -127 14 -14 22 -33 -12 -22 -41 21 -61 118 -95 193 -70
38 14 43 13 48 0 10 -25 -34 -55 -68 -48 -33 8 -45 -7 -21 -28 61 -54 203 -37
266 32 17 19 47 21 65 5 10 -9 -24 -34 -45 -34 -25 0 -32 -14 -13 -25 43 -27
168 11 227 68 88 85 136 260 103 377 -4 14 -1 42 7 65 43 124 -50 301 -186
351 -103 38 -125 89 -97 224 11 57 15 107 11 137 -6 46 -5 49 30 72 19 13 68
60 109 103 160 170 216 387 140 543 -24 51 -24 51 0 98 136 270 -67 598 -380
614 -75 4 -99 2 -144 -16 -30 -11 -56 -19 -58 -17 -2 2 18 41 43 87 681 1226
782 2877 260 4244 -52 135 -62 171 -51 177 51 29 81 142 59 224 -25 92 -21
169 15 257 60 152 62 247 5 344 -25 43 -25 43 -8 90 40 112 11 264 -65 343
-28 30 -41 55 -51 97 -7 32 -16 66 -21 75 -16 30 71 -23 100 -61 92 -121 167
-169 276 -180 60 -6 60 -6 85 -58 27 -56 44 -66 55 -32 12 36 -5 111 -40 179
-19 36 -45 105 -59 154 -34 116 -67 174 -137 241 -114 109 -285 165 -501 165
-92 0 -98 1 -98 20 0 16 5 19 24 14 30 -7 103 12 138 37 52 37 80 117 82 232
2 56 6 114 10 130 10 33 0 34 -51 7 -26 -14 -57 -20 -99 -20 -61 0 -61 0 -37
73 104 315 121 731 42 1016 -47 171 -161 360 -272 452 -125 105 -198 121 -529
118 -227 -2 -227 -2 -257 24 -95 79 -258 59 -400 -49 -44 -34 -44 -34 -180
-35 -75 0 -169 -6 -208 -13 -40 -7 -73 -11 -73 -10 0 2 15 25 34 51 115 161
78 409 -82 553 -53 47 -53 47 -23 95 52 83 66 137 66 265 0 109 -2 119 -32
183 -36 75 -116 166 -175 200 -31 17 -38 26 -33 42 24 82 28 131 17 202 -46
292 -369 484 -601 357 -24 -13 -47 -24 -51 -24 -10 0 -30 47 -30 70 0 11 -6
20 -14 20 -8 0 -27 24 -44 53 -89 157 -293 252 -462 213 -84 -19 -157 -54
-211 -103 -39 -36 -42 -36 -55 -18 -8 10 -14 27 -14 36 0 42 -46 24 -63 -24
-2 -7 -23 9 -50 38 -117 130 -302 154 -446 59 -60 -40 -56 -42 -112 37 -15 22
-15 22 -43 -24 -26 -45 -48 -58 -61 -37 -13 20 -82 58 -135 74 -65 19 -127 19
-200 0z m203 -29 c29 -8 69 -30 91 -48 39 -33 39 -33 16 -77 -25 -49 -24 -114
2 -167 13 -26 13 -30 2 -26 -8 3 -14 -1 -14 -10 0 -9 -9 -18 -19 -22 -29 -9
-100 -90 -106 -122 -4 -15 -11 -35 -16 -43 -22 -35 -39 -81 -39 -109 0 -61
-67 -33 -77 32 -10 66 -76 138 -146 159 -29 9 -36 15 -31 27 47 110 39 188
-24 245 -36 32 9 91 108 141 72 37 169 45 253 20z m643 -11 c55 -15 147 -88
159 -125 5 -13 -2 -33 -19 -57 -52 -75 -58 -161 -16 -215 19 -24 19 -24 -23
-44 -85 -41 -147 -116 -147 -177 0 -61 -57 -41 -63 22 -13 141 -115 282 -202
282 -19 0 -19 2 6 44 12 20 27 36 35 36 8 0 14 8 14 18 0 54 101 96 174 72 94
-31 86 -170 -10 -170 -46 0 -67 36 -35 61 27 22 27 29 -4 29 -47 0 -59 -57
-20 -95 56 -57 165 -6 165 77 0 129 -165 184 -262 87 -34 -34 -38 -35 -38 -11
0 10 -9 36 -20 57 -21 40 -21 40 7 63 83 68 169 82 299 46z m-1508 -29 c146
-35 304 -163 285 -233 -8 -34 5 -86 33 -128 19 -27 23 -39 14 -42 -23 -8 -91
-75 -107 -105 -8 -16 -15 -49 -16 -74 0 -24 -4 -46 -9 -49 -4 -3 -8 -16 -8
-28 0 -20 -9 -26 -62 -41 -58 -16 -109 -39 -214 -99 -65 -36 -98 -26 -113 33
-8 32 -24 60 -48 82 -35 34 -35 34 -29 102 8 84 -4 132 -45 183 -38 48 -35 84
10 146 146 198 461 124 461 -108 0 -110 -102 -191 -171 -136 -25 21 -20 59 6
48 9 -3 24 3 35 14 50 50 -1 140 -78 140 -135 0 -201 -197 -105 -311 40 -47
95 -69 181 -69 44 0 72 -4 72 -11 0 -5 5 -7 10 -4 13 8 13 42 1 50 -6 3 -29 1
-53 -4 -149 -34 -272 105 -214 243 40 96 185 104 174 9 -2 -21 -8 -28 -24 -28
-48 0 -72 -56 -36 -88 90 -82 232 8 232 146 0 227 -263 331 -463 183 -34 -25
-87 -102 -87 -126 0 -10 -6 -23 -14 -29 -15 -12 -57 34 -76 83 -11 31 -26 33
-35 6 -6 -19 -25 -29 -25 -12 0 22 65 115 107 152 115 101 264 140 411 105z
m1141 -40 c50 -61 64 -105 51 -157 -33 -121 -210 -99 -210 27 0 54 9 73 63
138 47 56 43 56 96 -8z m1057 44 c125 -23 241 -104 292 -205 37 -74 36 -84
-16 -148 -36 -44 -48 -54 -50 -40 -27 157 -128 260 -267 271 -105 9 -182 -25
-240 -104 -37 -51 -41 -52 -48 -8 -3 19 -16 49 -28 67 -23 31 -23 31 22 71 94
84 212 118 335 96z m-1683 -192 c22 -39 19 -110 -7 -149 -35 -53 -143 -50
-176 5 -37 61 -22 135 46 228 36 49 36 49 77 -2 23 -28 50 -65 60 -82z m1321
-24 c29 -57 13 -138 -33 -163 -39 -20 -115 -12 -141 15 -54 57 -38 139 47 240
36 44 36 44 73 -8 21 -29 45 -66 54 -84z m410 42 c108 -52 173 -200 145 -326
-9 -38 3 -79 36 -125 15 -20 14 -22 -17 -34 -18 -6 -43 -17 -56 -23 -33 -16
-82 -95 -82 -133 0 -48 -11 -48 -81 -1 -35 23 -96 53 -136 65 -71 23 -71 23
-75 65 -6 54 2 62 46 47 144 -47 294 139 216 268 -70 115 -240 79 -240 -51 0
-50 72 -93 95 -57 10 15 -5 34 -17 22 -31 -31 -66 33 -44 77 39 74 148 66 182
-15 53 -127 -80 -268 -197 -210 -17 9 -35 13 -40 11 -4 -3 -13 13 -19 35 -12
44 -65 110 -111 137 -28 17 -28 17 -2 47 14 17 32 30 39 28 8 -2 16 9 20 25
16 77 72 142 139 163 47 14 155 6 199 -15z m-2797 -113 c32 -17 32 -17 1 -70
-24 -42 -34 -51 -47 -45 -9 4 -50 8 -91 8 -118 -1 -212 -73 -255 -196 -19 -54
-19 -160 0 -206 18 -44 25 -39 -61 -47 -72 -6 -72 -6 -83 38 -53 213 91 462
304 523 63 18 194 15 232 -5z m133 -77 c41 -37 63 -93 56 -148 -7 -67 -33 -93
-98 -100 -61 -8 -80 1 -103 49 -25 53 -15 100 40 195 48 80 48 80 65 52 9 -15
27 -37 40 -48z m3290 65 c217 -41 381 -258 355 -469 -10 -76 -24 -104 -49 -96
-12 3 -49 9 -83 12 -62 6 -62 6 -46 36 25 49 29 145 8 207 -49 147 -217 229
-340 166 -27 -14 -49 -24 -50 -23 0 1 -10 23 -23 50 -29 62 -29 63 18 87 73
37 129 45 210 30z m-280 -72 c62 -104 66 -175 14 -237 -35 -42 -117 -45 -154
-6 -29 31 -39 118 -18 158 10 21 108 154 114 156 1 1 21 -31 44 -71z m-1399
52 c64 -18 156 -97 136 -117 -4 -4 -14 3 -23 15 -15 21 -34 22 -34 1 0 -5 23
-31 50 -58 42 -41 50 -54 50 -85 0 -52 -17 -81 -36 -65 -13 11 -20 7 -41 -20
-42 -54 -153 -91 -153 -52 0 10 -11 28 -24 40 -25 23 -25 23 -71 -22 -45 -43
-48 -44 -74 -31 -14 8 -32 14 -39 14 -7 0 -22 16 -33 35 -21 36 -44 45 -52 23
-8 -21 -36 24 -36 57 0 41 17 68 66 104 49 35 69 66 51 77 -6 4 -19 -3 -30
-16 -26 -32 -36 -16 -11 18 54 73 198 111 304 82z m-615 -118 c48 -24 94 -75
94 -103 0 -24 -4 -24 -40 3 -16 12 -33 19 -37 15 -10 -10 37 -57 73 -72 53
-22 67 -89 31 -140 -12 -15 -18 -17 -29 -7 -12 10 -27 3 -79 -36 -78 -59 -93
-67 -143 -76 -35 -7 -38 -6 -27 8 21 25 8 40 -35 42 -43 2 -66 -10 -58 -30 8
-22 -45 -6 -61 17 -23 33 -19 48 9 41 35 -9 54 28 31 62 -17 27 -35 30 -53 12
-17 -17 -35 9 -26 37 3 11 8 41 9 67 6 76 51 139 125 173 49 22 162 15 216
-13z m-1195 7 c16 -8 18 -17 13 -43 -3 -18 -1 -51 5 -72 18 -66 -37 -91 -63
-29 -18 43 -51 47 -87 9 -51 -54 -21 -153 52 -169 24 -6 27 -9 19 -25 -6 -10
-10 -31 -10 -45 0 -15 -7 -33 -15 -42 -9 -8 -19 -28 -22 -44 -7 -35 -5 -35
-51 -5 -20 14 -50 28 -65 32 -106 25 -118 232 -22 358 52 68 185 108 246 75z
m2427 -5 c80 -33 128 -104 133 -199 3 -51 2 -60 -12 -57 -19 3 -79 -61 -79
-84 0 -12 8 -13 37 -8 37 7 37 7 15 -27 -22 -35 -50 -54 -39 -26 3 8 -3 23
-13 32 -18 16 -22 17 -54 1 -19 -9 -38 -21 -41 -26 -15 -25 -58 -9 -104 39
-51 53 -84 69 -106 51 -18 -15 -11 -32 24 -53 26 -15 98 -123 88 -133 -11 -11
-56 25 -66 53 -7 18 -35 52 -62 76 -81 69 -85 131 -13 190 19 16 34 35 34 43
0 18 -9 18 -32 -3 -28 -25 -33 -8 -8 32 58 94 198 141 298 99z m-2118 -50 c17
-50 5 -144 -18 -144 -38 0 -43 14 -21 60 15 31 20 56 16 87 -5 50 6 48 23 -3z
m3200 15 c95 -43 150 -129 150 -233 0 -65 -30 -144 -59 -153 -57 -17 -142 -57
-157 -74 -24 -27 -31 -24 -38 15 -4 19 -15 45 -25 57 -10 13 -21 41 -24 62 -5
35 -4 37 14 32 86 -28 162 70 108 139 -35 44 -113 27 -94 -21 6 -17 7 -17 19
0 25 32 66 14 66 -30 0 -77 -90 -81 -188 -9 -18 14 -38 26 -45 29 -7 2 -2 15
15 36 15 17 30 48 34 69 16 91 120 128 224 81z m-3580 -122 c0 -43 45 -61 91
-36 12 6 27 8 36 5 25 -10 -73 -78 -115 -79 -60 -2 -92 61 -56 111 20 29 44
28 44 -1z m356 -71 c53 -25 104 -79 104 -111 0 -17 -1 -17 -20 0 -11 10 -23
15 -27 12 -12 -13 21 -59 53 -75 50 -23 68 -81 42 -136 -8 -20 -16 -24 -33
-20 -16 4 -28 -2 -42 -20 -30 -38 -152 -83 -140 -52 6 14 -31 56 -49 56 -18 0
-56 -48 -49 -61 21 -34 -71 3 -108 43 -33 37 -41 40 -57 30 -46 -29 -58 102
-14 143 15 14 30 25 35 25 7 0 49 62 49 74 0 15 -26 3 -47 -21 -18 -22 -22
-24 -23 -11 0 10 17 36 37 59 79 87 188 112 289 65z m1142 2 c5 -7 13 -27 16
-43 4 -17 23 -58 43 -90 32 -52 36 -67 34 -115 -1 -31 3 -68 8 -83 13 -33 2
-34 -109 -11 -41 8 -99 14 -130 13 -55 -3 -55 -3 -51 40 2 27 -2 47 -10 51
-16 11 18 59 88 125 42 40 53 57 53 82 0 39 35 58 58 31z m628 -18 c0 -14 1
-33 2 -44 1 -10 31 -47 67 -82 69 -68 78 -85 43 -81 -22 2 -23 -1 -20 -57 4
-59 4 -59 -45 -53 -27 3 -82 -2 -126 -10 -42 -9 -79 -14 -81 -12 -2 2 2 30 11
62 17 69 12 91 -18 82 -19 -6 -19 -4 7 46 14 29 36 69 49 89 12 19 30 48 39
63 23 38 71 36 72 -3z m1181 -15 c52 -24 94 -72 92 -105 0 -10 -2 -11 -6 -2
-2 6 -11 12 -19 12 -26 0 -14 -29 26 -61 44 -35 59 -79 43 -126 -7 -21 -15
-27 -31 -25 -13 2 -25 -3 -28 -13 -8 -20 -96 -65 -128 -65 -15 0 -25 7 -29 20
-10 39 -87 32 -87 -8 0 -32 -114 4 -126 40 -6 21 -25 23 -42 6 -9 -9 -15 -3
-27 25 -19 46 2 108 46 134 34 20 72 70 60 78 -5 3 -23 -7 -40 -21 -33 -28
-39 -19 -17 24 51 98 201 140 313 87z m-1351 -93 c-31 -55 -56 -104 -56 -110
0 -5 -12 -13 -26 -16 -34 -9 -64 23 -38 39 45 29 66 51 95 103 29 52 68 96 77
87 2 -2 -21 -48 -52 -103z m-367 48 c19 -28 37 -50 41 -50 3 0 12 -15 18 -34
10 -26 20 -35 45 -40 54 -11 64 -21 43 -45 -25 -27 -34 -26 -48 4 -8 19 -14
22 -24 14 -15 -12 -34 -4 -34 13 0 7 -18 41 -39 77 -65 110 -67 156 -2 61z
m-693 3 c7 -10 14 -30 14 -44 0 -14 14 -43 30 -64 37 -46 38 -57 5 -49 -23 6
-25 4 -25 -33 0 -38 -1 -39 -37 -41 -117 -7 -292 -123 -364 -239 -21 -34 -21
-34 -41 -13 -18 19 -21 20 -37 6 -79 -72 -26 87 60 179 32 35 49 74 49 115 0
60 193 176 329 199 2 1 10 -7 17 -16z m780 -9 c48 -16 160 -16 212 1 13 5 22
3 22 -3 0 -40 -198 -52 -258 -17 -56 34 -45 42 24 19z m1129 -63 c102 -48 109
-57 110 -141 0 -57 4 -72 23 -92 12 -14 22 -28 22 -31 0 -4 20 -43 45 -87 53
-93 51 -86 20 -85 -17 1 -34 15 -56 45 -79 109 -187 180 -307 203 -62 12 -62
12 -56 45 4 19 1 43 -5 56 -11 19 -8 30 21 80 39 68 51 69 183 7z m-2969 -82
c32 -12 72 -36 90 -53 39 -38 102 -156 110 -208 4 -21 12 -38 19 -38 32 0 45
-35 33 -87 -12 -50 -12 -50 -46 -36 -55 23 -184 8 -180 -20 7 -48 -113 -42
-147 7 -20 27 -19 91 1 110 27 28 63 16 44 -14 -24 -38 35 -52 87 -20 121 73
11 258 -142 237 -190 -26 -285 -260 -180 -443 24 -41 24 -41 -38 -53 -34 -7
-69 -13 -77 -14 -42 -5 -82 204 -61 318 45 241 279 392 487 314z m4046 -16
c96 -35 192 -127 227 -218 53 -134 36 -311 -40 -422 -29 -42 -31 -43 -57 -29
-15 8 -44 17 -65 21 -44 9 -44 6 -8 56 89 122 79 299 -21 399 -153 153 -420
35 -348 -154 9 -24 7 -25 -38 -32 -26 -4 -61 -13 -79 -20 -31 -14 -32 -14 -44
23 -6 21 -12 45 -13 55 -1 25 -27 40 -44 26 -8 -7 0 10 17 38 16 27 44 73 62
102 90 152 281 218 451 155z m-2058 -27 c20 -42 20 -54 1 -100 -30 -72 -107
-23 -89 57 17 79 61 100 88 43z m-118 -53 c0 -15 4 -38 8 -50 9 -27 5 -28 -34
-8 -40 21 -60 53 -60 97 0 38 0 38 43 14 33 -19 42 -30 43 -53z m-416 58 c0
-39 -26 -74 -68 -92 -54 -23 -57 -21 -39 23 17 40 107 98 107 69z m660 -12 c0
-37 -30 -87 -61 -99 -37 -16 -42 -11 -29 25 6 16 9 34 6 41 -7 19 36 51 72 53
6 1 12 -8 12 -20z m344 -2 c33 -19 39 -27 41 -59 2 -36 1 -37 -24 -32 -37 9
-59 33 -66 77 -8 42 -4 43 49 14z m142 6 c30 -39 5 -123 -35 -123 -46 0 -48
103 -2 130 22 13 22 13 37 -7z m-1440 -14 c30 -18 54 -46 54 -63 0 -9 -53 -7
-68 3 -13 8 -35 81 -25 81 3 0 21 -9 39 -21z m1569 -48 c-8 -17 -23 -31 -33
-31 -9 0 -27 -3 -40 -6 -19 -5 -21 -3 -16 12 11 29 46 64 65 64 9 0 20 8 25
18 7 15 8 15 11 -5 2 -12 -3 -35 -12 -52z m-1430 39 c24 -26 10 -75 -20 -75
-33 0 -53 49 -31 74 24 26 28 26 51 1z m-210 -40 c-3 -5 -13 -10 -21 -10 -8 0
-14 -10 -14 -22 0 -13 -3 -33 -6 -45 -7 -27 27 -63 61 -63 21 0 39 -20 18 -20
-5 0 -18 -3 -30 -6 -17 -5 -23 -2 -23 11 0 23 -23 13 -30 -12 -3 -12 -33 -40
-67 -63 -87 -58 -186 -168 -229 -255 -36 -72 -36 -72 -80 -25 -50 54 -52 61
-23 101 13 19 21 45 21 74 0 122 207 314 360 334 35 5 64 9 66 10 2 0 0 -3 -3
-9z m588 -40 c5 -4 -8 -17 -27 -28 -59 -35 -37 -64 62 -82 75 -13 121 -6 184
28 46 26 46 26 83 7 54 -29 52 -35 -12 -35 -78 0 -175 -24 -239 -59 -52 -28
-53 -28 -81 -10 -15 11 -59 31 -98 46 -73 28 -99 43 -74 43 32 0 87 21 93 35
3 9 -4 25 -15 36 -31 31 -15 42 55 34 33 -4 65 -10 69 -15z m1256 -23 c71 -35
168 -122 196 -177 10 -19 20 -58 21 -87 3 -53 26 -113 44 -113 20 0 9 -43 -22
-80 -31 -40 -31 -40 -53 15 -66 161 -235 311 -387 342 -33 7 -33 7 2 16 19 5
47 9 61 8 36 0 44 33 19 75 -11 17 -20 35 -20 39 0 14 76 -6 139 -38z m-1439
19 c0 -8 9 -18 20 -21 19 -6 28 -25 13 -25 -5 -1 -28 -5 -53 -10 -45 -9 -114
2 -125 19 -5 9 95 49 128 50 9 1 17 -5 17 -13z m843 -7 c-58 -37 -39 -71 46
-85 60 -10 58 -19 -10 -38 -34 -9 -83 -28 -109 -41 -48 -25 -48 -25 -106 10
-32 19 -63 36 -68 36 -22 3 50 17 89 18 79 2 112 55 55 90 -41 25 -29 31 59
31 76 0 76 0 44 -21z m-2376 -6 c48 -22 75 -68 69 -113 -8 -56 -76 -98 -76
-47 0 62 -75 63 -108 0 -27 -50 -1 -137 48 -163 27 -14 75 -17 117 -7 31 8 32
7 43 -32 6 -22 15 -43 20 -46 19 -12 10 -25 -27 -40 -58 -24 -85 -54 -81 -90
3 -26 0 -30 -20 -27 -33 5 -123 -24 -164 -52 -24 -16 -44 -22 -62 -19 -49 10
-118 -18 -166 -66 -132 -133 -90 -357 82 -431 52 -22 65 -22 147 1 9 3 15 -6
18 -25 2 -16 8 -37 14 -47 14 -27 11 -29 -17 -19 -43 17 -135 11 -183 -10 -44
-20 -44 -20 -87 0 -231 112 -265 448 -67 652 109 112 319 139 435 57 31 -22
44 -20 34 6 -7 19 -102 65 -134 65 -95 0 -154 224 -90 345 54 104 165 151 255
108z m1256 2 c87 -13 30 -57 -68 -53 -51 3 -60 6 -63 23 -3 23 32 45 63 40 11
-2 42 -7 68 -10z m1248 -6 c50 -17 56 -27 23 -40 -41 -16 -125 -13 -143 5 -13
14 -12 16 5 21 10 4 26 10 34 15 21 12 41 12 81 -1z m314 -9 c24 -26 11 -40
-44 -47 -42 -6 -121 13 -121 28 0 11 75 33 131 38 9 0 24 -8 34 -19z m-920 -9
c30 -13 30 -13 0 -28 -45 -24 -205 -20 -205 6 0 34 139 49 205 22z m333 3 c23
-10 41 -22 39 -28 -6 -18 -136 -29 -180 -15 -53 17 -54 25 -5 42 57 20 93 20
146 1z m1330 -45 c-75 -123 -101 -154 -111 -130 -6 11 -14 21 -19 21 -19 0 -6
17 26 33 19 8 47 33 62 54 69 94 95 107 42 22z m494 34 c115 -63 153 -225 84
-360 -35 -69 -61 -89 -126 -96 -30 -4 -77 -18 -103 -32 -60 -31 -58 -31 -51 3
7 35 -24 76 -72 94 -25 9 -33 16 -28 28 3 8 9 23 11 33 4 14 12 17 31 12 69
-17 82 -17 126 4 43 21 76 66 76 106 0 30 -30 75 -50 75 -25 0 -25 -11 0 -33
30 -26 25 -64 -14 -103 -38 -38 -67 -42 -121 -20 -36 15 -39 24 -29 63 6 21 7
21 30 6 15 -9 33 -13 49 -9 33 8 32 26 0 26 -63 0 -96 90 -60 160 37 71 158
92 247 43z m-818 -27 c25 -42 71 -89 98 -99 9 -3 7 -11 -9 -27 -21 -23 -21
-23 -56 31 -48 75 -79 139 -68 139 5 0 21 -20 35 -44z m-1743 -60 c71 -15 160
-55 196 -88 22 -20 22 -20 56 6 121 93 348 97 463 10 44 -34 44 -34 80 -9 112
76 367 102 510 51 174 -61 335 -233 351 -374 2 -20 7 -58 10 -84 3 -26 -3 -84
-12 -133 -22 -109 -16 -181 21 -260 47 -101 47 -217 -2 -274 -29 -34 -25 -71
6 -71 26 0 38 -46 18 -66 -22 -22 -48 -7 -48 27 0 31 -17 39 -26 14 -17 -43
24 -89 69 -77 52 14 59 104 10 123 -24 9 -24 11 -10 27 48 53 60 166 28 259
-18 53 -18 53 11 103 74 130 243 148 346 36 70 -76 87 -137 86 -306 -1 -162
-20 -239 -100 -403 -20 -42 -35 -79 -33 -81 25 -21 123 -76 132 -73 19 6 -41
51 -111 83 -2 1 10 24 27 50 25 42 48 94 93 215 8 22 17 27 60 32 68 8 79 22
18 22 -62 0 -63 1 -54 74 7 61 7 61 56 61 57 0 117 27 147 67 19 27 20 27 21
6 0 -37 -31 -105 -70 -153 -96 -118 -107 -353 -23 -497 25 -43 25 -43 -37 -43
-55 0 -61 -2 -55 -17 54 -140 60 -267 18 -349 -32 -61 -40 -65 -103 -44 -118
39 -185 67 -184 78 1 7 2 26 3 44 1 29 2 30 19 16 22 -20 60 -29 89 -22 31 8
19 24 -17 24 -31 0 -64 25 -57 44 3 6 10 10 17 8 37 -8 55 62 23 90 -43 36
-95 22 -127 -33 -20 -34 -20 -34 21 -1 44 34 62 39 81 20 16 -16 15 -38 -1
-38 -19 0 -43 -29 -56 -70 -24 -75 -37 -81 -111 -61 -43 12 -64 23 -63 32 1 8
5 27 9 42 4 16 2 38 -4 50 -6 12 -13 30 -16 40 -3 9 -10 17 -16 17 -13 0 -13
-47 0 -55 16 -10 11 -61 -7 -77 -26 -21 -108 -4 -97 20 3 9 6 27 5 39 0 12 7
27 17 32 14 8 10 10 -20 11 -20 0 -49 7 -65 14 -15 8 -37 18 -48 21 -20 7 -20
7 0 18 49 29 75 68 75 112 0 36 5 47 28 63 23 17 25 23 13 34 -11 10 -14 10
-18 1 -3 -7 -14 -13 -26 -13 -29 0 -57 -19 -39 -27 17 -7 15 -84 -4 -111 -8
-12 -31 -29 -50 -37 -39 -16 -44 -36 -12 -57 22 -14 22 -14 1 -35 -11 -11 -22
-25 -24 -31 -4 -10 -127 9 -150 24 -19 11 -9 59 14 69 49 22 22 58 -73 93 -23
8 -20 10 34 26 59 17 59 17 82 -11 20 -24 31 -66 24 -98 -5 -27 -4 -30 10 -30
34 0 27 93 -11 147 -11 14 -19 33 -19 41 0 28 -20 29 -49 4 -40 -33 -142 -45
-195 -23 -43 18 -47 34 -7 28 43 -6 118 31 139 69 9 18 29 46 44 63 27 31 27
31 26 -3 -1 -36 28 -71 59 -71 28 0 76 58 69 84 -8 33 42 76 90 76 33 0 34 -1
34 -42 0 -44 -21 -78 -49 -78 -26 -1 -61 -24 -82 -56 -20 -31 -26 -84 -9 -84
6 0 10 9 10 21 0 35 38 78 80 89 65 17 80 47 78 151 -1 97 -5 104 -31 59 -13
-21 -26 -30 -43 -30 -59 0 -120 -58 -108 -104 8 -32 -37 -66 -61 -46 -20 17
-19 30 7 57 28 30 13 48 -31 38 -31 -7 -63 -39 -93 -93 -41 -75 -168 -99 -168
-31 0 28 -19 23 -31 -8 -15 -40 14 -92 66 -118 40 -20 40 -20 11 -23 -74 -9
-156 34 -227 119 -42 50 -42 50 -22 87 56 101 26 224 -63 267 -81 38 26 58
136 25 139 -41 234 -17 336 84 96 96 116 192 73 345 -20 71 -21 121 -4 163 11
27 -23 35 -40 11 -26 -38 -86 -53 -197 -51 -107 3 -130 -3 -175 -45 -20 -18
-27 -19 -62 -9 -52 16 -100 15 -135 -3 -42 -22 -44 -11 -3 30 40 40 75 45 130
19 32 -15 34 -15 86 17 50 31 59 33 151 35 113 2 174 24 212 77 21 29 23 43
23 157 0 102 3 131 18 159 31 56 5 65 -41 14 -25 -28 -50 -45 -77 -52 -66 -17
-100 -60 -100 -129 -1 -66 -5 -77 -47 -98 -26 -14 -32 -14 -45 -2 -12 13 -8
21 27 59 42 46 48 68 27 109 -15 30 -42 33 -42 5 0 -14 -17 -28 -63 -51 -78
-39 -92 -57 -90 -111 3 -64 -45 -106 -80 -71 -14 14 -16 54 -3 63 11 6 41 63
41 77 0 11 -28 10 -32 -2 -1 -5 -23 -20 -47 -32 -57 -29 -83 -65 -86 -118 -1
-23 -7 -46 -14 -53 -6 -6 -11 -20 -12 -31 0 -20 -1 -20 -11 2 -23 47 -78 9
-78 -54 0 -40 21 -58 60 -52 31 5 31 5 -4 -31 -43 -44 -75 -114 -76 -162 0
-34 -2 -37 -51 -52 -61 -20 -121 -21 -201 -5 -58 12 -58 12 -58 54 0 130 -93
223 -212 210 -43 -4 -59 -2 -65 8 -24 42 -85 61 -203 63 -63 1 -123 2 -132 3
-10 0 -36 16 -57 35 -46 42 -50 39 -48 -40 1 -39 -9 -95 -27 -159 -34 -118
-32 -175 10 -261 68 -138 216 -192 383 -141 66 19 177 22 147 3 -123 -77 -156
-216 -73 -305 25 -26 23 -28 -101 -119 -86 -62 -119 -72 -240 -73 -108 0 -153
-12 -185 -48 -23 -25 -15 -42 20 -42 22 0 24 -3 18 -27 -8 -34 8 -28 -120 -47
-60 -9 -120 -19 -132 -22 -16 -4 -25 -1 -29 10 -9 23 28 56 61 56 31 0 33 16
3 26 -44 13 -59 35 -57 83 1 25 6 51 11 57 5 8 -2 13 -23 18 -40 8 -58 -3 -34
-20 14 -11 18 -25 16 -60 -1 -32 3 -52 15 -65 16 -18 16 -20 0 -38 -9 -10 -18
-33 -19 -50 -1 -24 -8 -33 -25 -38 -33 -8 -52 13 -45 48 5 24 2 31 -13 35 -11
3 -27 19 -37 35 -21 37 -46 35 -66 -6 -7 -17 -22 -47 -33 -68 -18 -35 -18 -40
-4 -62 18 -27 15 -30 -32 -40 -37 -8 -62 7 -62 36 0 39 -114 152 -144 143 -67
-19 -71 -124 -5 -124 21 0 38 -22 21 -28 -23 -7 -12 -31 16 -34 60 -7 28 -32
-88 -70 -130 -43 -135 -43 -157 9 -39 96 5 249 110 374 51 62 166 149 194 149
7 0 13 9 13 20 0 11 -4 20 -9 20 -17 0 -84 113 -107 182 -84 247 -20 520 139
597 78 38 177 14 255 -62 55 -54 68 -99 46 -158 -21 -55 -24 -189 -6 -212 10
-12 11 -21 3 -36 -7 -13 -8 -22 -1 -26 15 -9 12 -51 -4 -64 -30 -25 -71 24
-45 55 6 8 9 18 5 22 -11 10 -36 -28 -36 -52 1 -61 81 -81 109 -27 13 24 9
106 -8 146 -20 46 -8 139 28 230 47 115 53 159 37 258 -14 84 -10 187 8 216 5
7 10 28 11 45 5 95 177 301 300 361 118 57 288 78 416 51z m-1086 -60 c18 -24
27 -49 29 -85 4 -49 3 -51 -32 -72 -36 -21 -36 -21 -65 11 -37 41 -37 113 1
118 17 3 22 10 22 33 0 38 13 37 45 -5z m146 2 c39 -48 16 -128 -37 -128 -61
0 -69 58 -18 119 31 37 31 37 55 9z m2856 -20 c27 -31 34 -55 28 -92 -6 -28
-9 -31 -44 -30 -52 2 -61 9 -61 51 0 33 32 93 49 93 4 0 17 -10 28 -22z m183
-71 c0 -16 -12 -45 -27 -65 -15 -20 -28 -38 -29 -40 -1 -1 -18 8 -37 20 -33
21 -36 26 -30 58 8 43 41 90 64 90 10 0 21 5 25 12 10 16 33 -36 34 -75z
m-2918 24 c7 -41 -10 -111 -27 -111 -15 0 -65 35 -65 45 1 26 28 87 46 100 28
21 38 14 46 -34z m2623 -14 c15 -51 12 -73 -12 -91 -25 -18 -25 -18 -46 2 -21
21 -29 95 -13 120 8 14 65 -11 71 -31z m438 -115 c-14 -29 -29 -40 -68 -55
-84 -31 -82 -31 -99 1 -29 56 60 149 159 164 28 5 33 -60 8 -110z m-3465 65
c15 -15 38 -36 52 -46 24 -19 24 -19 6 -60 -11 -22 -19 -41 -20 -41 -1 0 -24
9 -53 20 -29 11 -59 17 -68 14 -30 -12 -66 38 -79 107 -6 37 -6 37 64 35 62
-1 73 -4 98 -29z m324 -55 c21 -21 21 -21 -16 -12 -165 37 -265 -191 -121
-275 23 -14 52 -25 64 -25 12 0 19 -4 16 -10 -11 -18 -98 -11 -132 10 -118 71
-95 274 37 329 41 17 128 8 152 -17z m2880 -8 c92 -47 119 -210 51 -302 -42
-56 -127 -87 -174 -62 -31 17 -22 27 29 34 67 9 110 38 134 92 60 137 -68 275
-204 219 -10 -4 -18 -3 -18 3 0 9 36 27 75 35 27 6 74 -2 107 -19z m-2857 -51
c40 -20 93 -71 112 -107 15 -29 15 -30 -18 -58 -96 -79 -244 -75 -284 9 -14
30 -14 47 1 104 5 18 69 64 100 72 23 5 49 0 89 -20z m2847 -24 c60 -71 43
-170 -36 -209 -52 -25 -68 -25 -135 0 -120 44 -135 81 -65 159 89 99 179 118
236 50z m-632 -13 c0 -18 5 -57 10 -87 23 -123 -72 -211 -208 -193 -57 7 -123
-8 -174 -41 -35 -23 -38 -24 -74 -9 -42 18 -99 12 -127 -13 -22 -20 -35 -8
-19 17 7 11 12 37 12 58 0 41 19 76 51 93 19 10 20 8 14 -25 -6 -29 -3 -39 19
-60 54 -55 138 -4 122 74 -7 37 45 100 82 100 10 0 31 9 46 21 41 32 34 -2 -9
-45 -46 -46 -48 -88 -6 -106 62 -25 136 49 125 126 -7 50 20 88 81 109 55 19
55 19 55 -19z m970 -5 c83 -60 -21 -129 -150 -99 -48 12 -55 17 -58 40 -8 65
142 107 208 59z m-3557 4 c42 -17 51 -29 54 -71 2 -30 -2 -34 -58 -59 -60 -26
-60 -26 -126 -3 -113 40 -109 88 12 127 74 24 75 24 118 6z m3877 -65 c121
-23 219 -100 277 -218 37 -74 38 -79 38 -187 -1 -154 -52 -254 -155 -300 -22
-10 -40 -24 -40 -32 0 -16 0 -16 46 3 71 31 157 44 317 51 l158 6 -48 -76
c-51 -80 -58 -84 -71 -35 -9 37 -29 48 -39 21 -13 -38 -35 -53 -78 -53 -66 0
-99 -31 -92 -87 7 -61 -18 -92 -59 -74 -48 20 -82 57 -94 102 -12 44 -58 99
-84 99 -8 0 -21 6 -28 13 -54 49 -149 80 -201 66 -21 -6 -40 -9 -42 -7 -2 2
16 108 20 115 1 2 19 -6 40 -17 135 -69 318 59 318 222 0 158 -155 269 -285
205 -43 -22 -55 -24 -68 -13 -28 23 -71 36 -121 36 -39 0 -51 4 -55 18 -3 9
-10 25 -15 35 -6 11 -9 20 -7 21 27 20 91 44 103 40 9 -4 24 1 34 10 45 41
133 55 231 36z m-438 -74 c47 -11 77 -98 43 -126 -45 -37 -161 41 -149 100 11
49 11 49 46 40 18 -4 45 -11 60 -14z m-3587 -21 c40 -18 40 -18 -5 -31 -25 -7
-57 -16 -73 -19 -38 -8 -86 -54 -93 -91 -8 -41 28 -84 71 -85 82 -2 184 10
214 25 36 19 45 17 35 -7 -3 -9 -28 -23 -55 -32 -55 -19 -89 -55 -89 -96 0
-46 -41 -86 -74 -71 -20 9 -26 19 -26 42 0 85 -84 124 -170 80 -53 -27 -95
-26 -125 5 -38 37 -27 70 31 103 31 17 9 24 -28 9 -64 -27 -71 -94 -14 -139
18 -15 19 -20 9 -37 -7 -12 -13 -27 -13 -35 0 -25 41 -66 65 -66 31 0 94 31
95 47 0 23 -22 25 -44 4 -44 -41 -100 -15 -77 35 8 19 17 25 32 21 11 -3 38 5
62 19 73 41 158 18 143 -39 -6 -23 9 -56 33 -74 49 -38 131 18 131 90 0 35 21
58 73 77 46 18 48 18 57 -1 8 -15 4 -27 -18 -58 -16 -22 -37 -68 -46 -102 -20
-69 -50 -104 -105 -119 -85 -24 -163 3 -203 70 -12 19 -23 37 -25 39 -1 2 -14
-7 -27 -22 -103 -111 -298 15 -296 192 1 82 56 171 124 202 51 23 104 25 113
4 3 -9 19 -23 35 -31 30 -16 30 -16 12 16 -19 31 -19 31 6 51 63 49 184 60
265 24z m215 11 c0 -7 9 -25 21 -40 20 -26 20 -27 2 -59 -58 -99 -190 -75
-145 27 23 51 122 110 122 72z m424 -244 c8 -23 -11 -132 -22 -132 -4 0 -19
21 -34 46 -16 26 -46 56 -73 72 -36 22 -44 31 -39 47 4 11 6 40 5 64 -2 58 16
83 72 99 25 8 52 21 59 30 11 13 14 -3 19 -94 3 -60 9 -119 13 -132z m2507
186 c48 -23 48 -23 49 -87 0 -62 -1 -65 -43 -105 -24 -22 -50 -52 -59 -66 -15
-25 -15 -25 -26 25 -8 38 -7 65 3 115 8 36 14 82 15 103 0 44 -1 43 61 15z
m-3091 -51 c0 -19 8 -42 20 -55 23 -24 20 -27 -36 -37 -48 -7 -114 15 -114 39
0 49 41 83 103 85 24 1 27 -2 27 -32z m3438 3 c48 -64 6 -128 -68 -105 -43 14
-45 54 -3 97 45 46 44 46 71 8z m-3172 -31 c-5 -25 8 -49 27 -49 5 0 7 9 4 21
-10 37 2 49 48 49 40 0 43 -2 47 -30 7 -49 -11 -65 -79 -65 -44 0 -72 -7 -111
-27 -51 -27 -51 -27 -66 3 -18 37 -14 50 24 72 16 10 37 31 46 46 23 39 69 24
60 -20z m3465 31 c47 -13 91 -57 84 -82 -7 -21 14 -25 33 -6 9 9 9 15 0 26
-10 11 -7 18 12 32 74 56 194 19 242 -73 99 -191 -127 -391 -296 -262 -46 35
-66 32 -66 -8 0 -56 -75 -110 -148 -105 -47 3 -47 3 -54 68 -6 65 -36 160 -61
195 -25 33 -1 63 40 51 31 -10 33 -14 33 -54 0 -124 100 -190 144 -95 32 68
78 80 128 33 38 -36 65 -45 100 -31 97 37 50 192 -54 178 -25 -3 -41 0 -49 9
-13 16 -59 19 -59 4 0 -23 -18 -8 -23 20 -7 33 -56 70 -94 70 -29 0 -38 16
-16 29 23 13 58 14 104 1z m-144 -56 c52 -10 83 -85 48 -114 -13 -10 -19 -10
-33 2 -9 9 -30 18 -47 22 -54 13 -73 31 -70 68 2 18 4 33 4 33 2 2 80 -7 98
-11z m-878 -204 c28 -91 0 -221 -58 -274 -17 -15 -16 -9 6 46 49 121 25 275
-52 336 -27 21 -23 32 10 32 12 0 30 6 40 14 19 14 20 11 32 -52 6 -37 16 -83
22 -102z m-1696 132 c34 -5 34 -7 -2 -47 -79 -90 -95 -265 -34 -378 32 -59 24
-64 -19 -12 -73 87 -81 172 -33 348 23 88 32 106 44 101 9 -4 28 -9 44 -12z
m1502 -6 c167 -58 189 -302 42 -450 -53 -53 -105 -66 -188 -46 -51 12 -51 12
2 30 60 20 84 44 98 97 20 71 -15 144 -78 164 -20 6 -40 15 -44 19 -12 11
-106 -25 -133 -51 -54 -50 -55 -135 -2 -194 30 -35 30 -35 5 -35 -14 0 -32 -3
-41 -6 -12 -5 -16 0 -16 17 0 45 -40 108 -86 135 -49 29 -53 45 -30 112 35 99
148 174 223 148 17 -5 32 0 61 24 62 49 117 60 187 36z m-1253 -8 c21 -6 52
-26 68 -45 24 -27 34 -32 57 -27 61 12 149 -83 160 -173 5 -50 4 -55 -30 -92
-32 -35 -55 -95 -49 -127 1 -6 -22 -11 -62 -11 -64 -1 -64 -1 -26 37 79 79 60
185 -42 233 -51 24 -51 24 -101 6 -63 -23 -84 -43 -98 -90 -32 -104 56 -203
164 -185 32 6 32 6 -3 -11 -61 -30 -188 -24 -232 9 -133 101 -136 343 -6 452
48 40 119 48 200 24z m2606 -17 c54 -7 67 -17 79 -60 15 -57 -51 -90 -95 -48
-64 62 -148 53 -178 -18 -30 -72 -83 -46 -92 44 -5 56 -1 60 28 31 43 -43 114
-16 136 52 5 16 12 19 37 14 18 -4 56 -10 85 -15z m-2327 -78 c17 -15 38 -42
45 -60 16 -38 19 -129 4 -138 -6 -4 -10 9 -10 32 0 43 -29 111 -66 160 -30 40
-17 43 27 6z m527 10 c-40 -78 -61 -132 -65 -164 -6 -44 -26 -48 -31 -6 -5 42
17 105 49 142 27 31 58 49 47 28z m2961 -154 c52 -23 46 -37 -19 -42 -145 -11
-309 -186 -383 -408 -62 -186 -73 -448 -28 -634 11 -44 22 -127 25 -185 5
-105 5 -105 -20 -65 -173 277 -208 636 -94 972 96 281 333 447 519 362z
m-6457 0 c81 -17 126 -45 203 -123 132 -134 187 -288 188 -526 1 -236 -46
-416 -166 -628 -35 -63 -43 -61 -29 5 6 27 16 98 22 158 6 61 18 144 26 185
26 125 24 374 -5 485 -60 235 -189 379 -359 401 -43 5 -50 9 -41 20 25 30 86
39 161 23z m3803 -3 c69 -29 77 -133 12 -167 -73 -40 -177 3 -177 71 0 29 34
80 63 94 40 19 59 20 102 2z m-1036 -12 c65 -46 56 -140 -16 -170 -73 -31
-147 16 -147 94 0 72 101 119 163 76z m-1591 -42 c56 -53 146 -66 221 -32 24
11 45 20 47 20 2 0 4 -31 4 -70 0 -69 0 -69 -37 -79 -94 -27 -205 26 -252 117
-19 37 -27 72 -17 72 2 0 17 -13 34 -28z m5867 -2 c123 -20 173 -46 265 -139
285 -288 359 -831 189 -1386 -29 -96 -33 -102 -65 -114 -40 -15 -102 -75 -110
-107 -6 -22 -9 -20 -72 32 -285 237 -729 254 -952 37 -35 -35 -66 -63 -68 -63
-11 0 -77 167 -98 246 -76 301 -69 702 16 927 13 33 16 55 10 61 -22 22 -79
-163 -101 -330 -15 -119 -26 -96 -28 61 -4 374 170 716 386 757 121 24 523 35
628 18z m-7149 -17 c134 -24 247 -145 303 -326 26 -85 44 -265 36 -366 -10
-112 -15 -115 -35 -19 -21 99 -65 207 -80 192 -6 -6 0 -36 16 -79 68 -185 73
-437 13 -670 -39 -156 -140 -417 -174 -453 -1 -2 -16 9 -31 24 -162 151 -476
224 -710 164 -94 -24 -202 -84 -272 -150 -50 -49 -50 -49 -71 -15 -11 18 -33
41 -49 49 -26 14 -31 26 -60 143 -48 198 -53 235 -59 435 -10 341 35 567 158
793 110 203 206 261 464 285 111 10 481 5 551 -7z m3564 -8 c66 -20 109 -96
91 -162 -16 -56 -14 -63 18 -63 89 0 138 -144 81 -237 -19 -32 -19 -32 -72 -8
-82 38 -141 34 -251 -16 -104 -48 -145 -49 -242 -4 -68 32 -152 32 -218 0 -43
-20 -61 -11 -84 42 -41 100 24 223 119 223 31 0 38 15 25 50 -39 104 73 198
204 171 70 -14 134 -13 179 3 36 14 108 14 150 1z m-2747 -74 c48 -14 48 -14
24 -40 -25 -28 -51 -79 -62 -123 -7 -29 -64 -78 -90 -78 -36 0 -65 46 -65 104
0 69 -28 96 -99 96 -26 0 -56 7 -69 16 -13 9 -30 13 -39 10 -14 -6 -32 8 -33
24 0 12 387 4 433 -9z m434 -17 c158 -72 194 -325 73 -514 -39 -60 -62 -80
-138 -120 -35 -19 -72 -45 -83 -58 -20 -25 -20 -25 -62 4 -41 29 -87 86 -87
109 0 6 22 17 50 24 89 23 170 93 170 149 0 33 -17 27 -39 -15 -30 -61 -55
-77 -194 -127 -147 -54 -200 -220 -112 -350 25 -36 25 -36 -16 -74 -55 -49
-55 -49 -94 -8 -54 57 -78 135 -72 231 12 187 104 273 337 316 72 13 97 27 64
35 -18 5 -20 11 -16 58 8 104 -48 160 -185 183 -42 7 -44 34 -4 74 40 40 81
40 81 0 0 -45 26 -47 71 -6 44 39 89 46 138 20 26 -13 61 -67 61 -94 0 -6 5
-11 10 -11 17 0 11 53 -10 88 -38 63 -130 80 -194 37 -20 -13 -36 -21 -36 -16
0 15 78 80 102 85 13 3 32 7 43 10 32 7 86 -4 142 -30z m4187 12 c47 -20 52
-33 21 -58 -18 -14 -23 -24 -16 -31 7 -7 17 -5 31 8 29 27 107 16 137 -20 29
-33 31 -69 4 -60 -13 4 -27 -1 -39 -12 -10 -10 -36 -27 -58 -38 -78 -40 -106
-131 -68 -225 9 -22 14 -46 11 -54 -6 -15 41 -66 61 -66 15 0 15 13 0 28 -20
20 -3 23 79 13 160 -20 250 -79 287 -188 39 -114 -9 -274 -95 -319 -31 -16
-31 -16 -74 32 -42 49 -42 49 -11 87 27 34 31 48 34 110 5 123 -29 162 -185
213 -90 28 -99 34 -119 70 -16 29 -30 40 -54 45 -70 15 -107 70 -109 162 -1
43 -16 42 -26 -2 -15 -69 39 -157 111 -181 19 -7 42 -27 57 -49 17 -25 39 -43
62 -51 43 -14 42 -15 -13 -65 -37 -33 -46 -37 -60 -27 -10 7 -30 20 -46 30
-74 45 -93 61 -122 103 -129 193 -65 503 113 545 26 6 49 12 51 13 1 0 18 -5
36 -13z m-4912 -68 c53 2 78 -23 71 -75 -6 -47 28 -103 72 -117 40 -13 42 -16
25 -26 -33 -21 -81 -11 -117 25 -31 31 -34 39 -33 87 2 78 2 78 -28 78 -27 0
-52 15 -52 33 0 4 5 5 12 1 6 -4 29 -6 50 -6z m865 -9 c13 -13 74 -16 131 -6
41 7 42 7 42 -20 0 -48 50 -181 90 -241 38 -56 38 -56 -13 -91 -103 -69 -187
-168 -234 -276 -18 -43 -27 -52 -60 -61 -139 -41 -241 -149 -259 -276 -10 -73
-12 -74 -47 -33 -27 31 -40 38 -67 37 -45 -1 -79 -20 -86 -48 -3 -12 -14 -30
-25 -40 -23 -20 -25 -71 -5 -100 14 -19 11 -22 -51 -53 -77 -38 -83 -35 -83
51 0 149 132 299 252 285 41 -5 50 -3 54 11 31 96 87 160 203 228 41 24 68 44
58 44 -23 0 -22 6 12 49 123 155 159 401 77 527 -17 24 -9 33 11 13z m4603
-44 c-7 -8 -27 -19 -44 -23 -31 -8 -31 -9 -28 -66 6 -97 -60 -150 -141 -111
-39 18 -40 35 -3 35 40 0 71 44 68 97 -2 60 10 73 67 73 26 0 56 6 67 14 22
17 32 3 14 -19z m-5496 -1 c11 -4 16 -19 16 -53 0 -87 58 -151 138 -151 39 0
59 10 128 62 60 45 67 47 53 11 -15 -41 -13 -126 5 -161 16 -31 16 -31 -50
-63 -35 -18 -77 -46 -91 -63 -112 -132 -106 -365 13 -486 34 -36 34 -36 15
-76 -30 -61 -40 -133 -26 -187 12 -46 12 -46 -84 -103 -120 -71 -202 -124
-363 -236 -69 -48 -129 -88 -131 -88 -3 0 -8 13 -12 29 -5 22 4 49 38 118 24
48 58 129 76 180 17 51 49 118 70 150 105 160 181 338 217 513 38 178 21 439
-36 568 -20 43 -15 51 24 36z m5510 -79 c-67 -221 -79 -476 -30 -670 30 -122
102 -279 165 -361 25 -33 43 -71 50 -105 20 -93 51 -182 89 -262 21 -42 35
-82 32 -88 -4 -6 -56 25 -125 75 -94 67 -318 211 -414 266 -12 7 -12 13 2 42
31 66 32 118 2 213 -5 16 4 27 40 53 100 70 141 245 86 369 -40 91 -133 156
-255 178 -25 5 -36 12 -32 21 20 51 27 107 22 158 -6 58 -6 58 22 40 15 -10
40 -30 55 -46 94 -93 242 -37 236 90 -3 54 -2 55 32 66 43 15 41 19 23 -39z
m-5043 -43 c35 -31 49 -96 31 -143 -15 -37 -99 -57 -124 -29 -34 40 -31 142 5
188 16 20 55 14 88 -16z m4633 -16 c18 -38 21 -104 6 -156 -15 -56 -30 -69
-68 -63 -89 14 -100 178 -16 234 41 27 59 24 78 -15z m-1939 -151 c41 -18 68
-39 140 -112 89 -91 164 -123 287 -123 82 0 132 -10 118 -23 -3 -3 -86 -1
-185 2 -180 7 -180 7 -288 60 -130 64 -164 65 -266 7 -117 -67 -171 -66 -314
4 -110 55 -146 51 -300 -29 -81 -42 -114 -50 -135 -29 -9 9 -15 9 -24 0 -14
-14 -84 -16 -92 -3 -3 5 14 12 39 15 62 10 149 56 225 121 130 111 218 133
320 80 83 -44 161 -42 260 7 104 50 141 54 215 23z m-560 -192 c44 -21 44 -25
-1 -47 -36 -17 -39 -16 -90 5 -62 25 -67 35 -21 48 48 14 73 13 112 -6z m544
6 c42 -15 39 -21 -19 -46 -48 -21 -52 -21 -90 -5 -47 20 -49 27 -12 46 33 18
78 20 121 5z m-2709 -23 c0 -22 75 -100 116 -121 22 -10 40 -20 42 -21 2 -1
-13 -23 -33 -49 -20 -26 -42 -60 -50 -75 -12 -23 -22 -28 -72 -33 -65 -7 -75
-1 -104 54 -37 73 -19 171 42 232 36 37 59 42 59 13z m4315 -8 c119 -30 236
-153 239 -250 1 -39 3 -41 47 -38 139 8 280 -227 220 -367 -16 -40 -14 -40
-86 -2 -56 31 -57 32 -37 48 43 34 54 90 27 141 -30 58 -106 69 -149 23 -32
-34 -38 -27 -52 58 -25 147 -128 272 -242 295 -26 5 -36 15 -52 51 -30 67 -26
69 85 41z m359 1 c116 -43 151 -182 67 -263 -27 -26 -28 -26 -70 -11 -24 8
-51 15 -60 15 -10 0 -22 17 -33 48 -10 27 -29 65 -43 86 -25 37 -25 37 27 90
29 30 54 54 55 55 1 0 27 -8 57 -20z m-2632 -38 c67 -23 60 -31 -27 -31 -66 0
-74 2 -69 18 3 9 8 23 10 31 3 8 11 10 22 6 9 -4 38 -15 64 -24z m763 -10 c-9
-36 -7 -35 -77 -24 -63 9 -63 9 -8 34 67 31 94 28 85 -10z m-232 7 c42 -23 42
-23 -47 -26 -117 -4 -137 5 -66 28 71 23 64 23 113 -2z m475 -33 c13 -5 10
-52 -9 -126 -11 -43 -60 -113 -90 -130 -22 -11 -22 -10 -16 35 4 26 0 81 -8
128 -8 46 -15 88 -15 94 0 10 106 9 138 -1z m150 -13 c26 -34 15 -45 -40 -39
-63 8 -72 16 -52 45 18 26 69 23 92 -6z m-1442 -4 c-4 -13 -10 -71 -13 -130
-3 -60 -9 -108 -12 -108 -17 0 -72 69 -85 107 -12 33 -21 112 -17 146 1 4 31
7 67 7 64 0 66 -1 60 -22z m-726 -34 c0 -6 6 -14 14 -17 25 -10 5 -69 -27 -80
-49 -16 -70 13 -47 66 9 23 20 51 24 62 7 20 8 20 22 1 8 -11 14 -25 14 -32z
m-266 -31 c51 -51 56 -59 41 -69 -15 -11 -15 -13 4 -24 26 -14 27 -26 2 -33
-16 -4 -25 5 -44 42 -16 31 -36 52 -61 64 -37 18 -46 43 -24 65 18 18 20 17
82 -45z m2040 38 c43 -6 81 -13 84 -16 11 -11 14 -184 4 -214 -13 -38 -3 -46
41 -28 48 21 114 100 134 163 20 64 11 63 194 29 849 -157 1578 -497 2279
-1064 184 -148 590 -568 748 -773 11 -13 10 -27 -4 -75 -21 -76 -39 -93 -104
-101 -94 -12 -71 -43 42 -57 44 -6 73 -2 132 15 88 27 72 36 156 -89 41 -61
47 -77 37 -89 -7 -9 -13 -58 -16 -124 -3 -108 -3 -108 -42 -142 -33 -28 -37
-35 -25 -45 27 -22 119 15 185 74 38 34 38 34 83 -48 548 -984 744 -2095 573
-3247 -161 -1087 -673 -2065 -1502 -2871 -1165 -1130 -2713 -1638 -4250 -1393
-1057 168 -2073 693 -2853 1474 -717 717 -1175 1537 -1390 2490 -230 1018
-145 1996 260 2995 76 187 313 653 341 670 4 3 30 -6 56 -20 65 -33 131 -42
158 -20 11 9 16 18 10 21 -53 23 -75 45 -75 77 0 18 -7 59 -15 91 -15 58 -15
58 41 137 52 72 59 78 83 71 56 -15 174 -8 216 14 60 31 59 54 -2 54 -59 0
-88 18 -103 65 -14 42 -13 42 135 215 785 917 1831 1508 3005 1700 69 11 136
22 150 24 23 4 27 0 38 -47 6 -28 23 -68 37 -90 25 -37 111 -101 125 -92 4 2
5 40 2 84 -2 44 -1 100 2 125 7 44 8 45 49 51 179 24 803 28 981 6z m1555 -44
c87 -63 152 -203 137 -299 -11 -74 -11 -74 -132 -20 -60 27 -126 54 -147 61
-40 14 -45 22 -22 41 28 23 55 118 55 192 0 71 0 71 31 64 18 -3 52 -21 78
-39z m-834 23 c3 -5 15 -10 25 -10 26 0 32 -13 16 -35 -10 -15 -21 -17 -59
-11 -49 8 -64 29 -27 41 11 3 20 11 20 16 0 12 17 12 25 -1z m-3085 -98 c0
-48 6 -79 20 -107 19 -38 15 -54 -14 -55 -4 0 -62 -22 -127 -50 -149 -63 -143
-63 -136 5 13 130 133 261 250 274 4 1 7 -30 7 -67z m-372 -218 c12 -8 22 -22
22 -30 0 -8 11 -20 26 -26 25 -12 25 -12 2 -25 -36 -19 -47 -16 -45 15 2 22
-2 27 -22 27 -13 0 -26 -6 -28 -12 -3 -7 2 -13 11 -13 9 0 16 -4 16 -10 0 -13
-17 -13 -25 0 -8 13 -35 1 -35 -17 0 -8 9 -17 21 -20 18 -5 17 -7 -11 -25 -25
-15 -35 -16 -46 -7 -22 18 -18 60 7 66 15 4 20 12 16 29 -4 23 13 46 43 57 23
8 24 8 48 -9z m4621 -20 c29 -37 26 -70 -9 -106 -28 -28 -32 -29 -52 -16 -32
22 -33 36 -1 40 24 3 28 8 28 33 0 61 -64 33 -88 -38 -3 -9 -57 12 -57 23 0
17 29 43 42 37 10 -3 23 5 37 24 28 38 71 39 100 3z m-5994 -360 c181 -19 388
-129 455 -241 18 -31 18 -31 -4 -52 -29 -27 -40 -26 -56 5 -60 112 -363 204
-573 175 -240 -33 -425 -177 -446 -345 -6 -48 -8 -51 -46 -62 -29 -8 -42 -8
-47 0 -11 16 -10 74 2 96 14 25 -1 32 -40 19 -64 -23 -143 19 -179 95 -34 74
-42 250 -10 230 6 -4 47 -8 91 -10 117 -5 208 -53 208 -109 0 -48 20 -42 93
29 100 99 222 159 357 176 54 7 77 7 195 -6z m7293 6 c184 -23 376 -120 476
-240 37 -45 50 -44 51 3 2 40 25 79 66 110 29 21 34 22 139 32 41 4 85 11 98
16 22 8 22 8 22 -94 -1 -178 -69 -260 -197 -236 -53 10 -67 5 -53 -21 22 -41
14 -51 -42 -48 -52 3 -52 3 -60 42 -16 75 -116 180 -223 234 -255 127 -624
104 -767 -49 -42 -45 -49 -49 -67 -37 -28 17 -26 36 7 89 68 106 196 180 347
199 89 11 113 11 203 0z m-7193 -165 c126 -26 287 -127 284 -178 0 -6 -44 -48
-97 -92 -134 -111 -518 -496 -635 -637 -98 -118 -98 -118 -138 -89 -50 37
-126 55 -197 48 -55 -6 -55 -6 -50 82 4 58 12 103 27 136 26 59 25 60 -33 41
-61 -21 -84 -20 -123 4 -29 17 -32 23 -23 44 6 17 6 27 -1 32 -13 7 -16 4 -38
-38 -47 -88 -206 -123 -263 -57 -16 19 -38 26 -38 12 0 -4 10 -26 21 -51 42
-86 4 -237 -76 -298 -28 -21 -115 -59 -115 -50 0 2 9 23 20 47 34 77 15 209
-31 209 -19 0 -2 87 28 141 80 148 302 265 508 269 72 1 189 27 269 59 101 41
150 51 187 41 18 -5 31 -5 35 2 18 29 -81 38 -162 13 -27 -8 -50 -15 -51 -15
-11 0 1 58 18 94 54 116 206 216 372 246 64 11 210 4 302 -15z m7210 10 c210
-23 427 -160 452 -287 6 -31 6 -31 -33 -24 -21 4 -74 23 -117 42 -66 30 -84
34 -122 28 -65 -9 -59 -32 8 -31 39 1 70 -7 122 -30 97 -43 174 -55 360 -54
256 1 409 -42 527 -147 70 -63 134 -182 98 -182 -5 0 -14 -18 -21 -39 -14 -48
-1 -112 38 -178 29 -49 25 -51 -54 -28 -119 36 -197 143 -196 273 0 89 -9 103
-27 45 -16 -51 -35 -63 -94 -63 -82 1 -176 58 -176 106 0 8 -7 14 -16 14 -12
0 -15 -6 -10 -24 5 -19 -1 -30 -28 -54 -45 -39 -93 -47 -163 -27 -70 21 -94 6
-37 -23 71 -36 104 -88 104 -161 0 -38 0 -38 -65 -44 -75 -7 -130 -33 -191
-89 -25 -23 -46 -39 -47 -37 -117 162 -480 542 -699 731 -71 61 -128 114 -128
119 0 17 64 80 104 103 56 33 133 56 214 66 66 8 79 7 197 -5z m786 -651 c7
-9 34 -26 59 -38 130 -62 133 -277 6 -402 -58 -56 -106 -74 -198 -74 -45 0
-55 3 -63 22 -30 66 -138 72 -226 12 -29 -19 -56 -37 -60 -40 -5 -3 -6 10 -3
28 28 156 188 259 338 217 48 -13 74 3 34 21 -56 26 -40 220 17 220 8 0 27 11
42 25 33 29 37 30 54 9z m-8976 -70 c15 -10 48 -17 80 -18 55 -1 55 -1 50 -31
-3 -16 -7 -45 -8 -62 -2 -38 -12 -42 -27 -13 -6 11 -20 20 -30 20 -26 0 -25
-6 6 -43 22 -26 25 -38 20 -73 -7 -51 2 -55 109 -47 119 9 200 -35 240 -129
17 -43 11 -46 -43 -18 -107 56 -214 40 -274 -40 -40 -54 -168 -33 -253 42
-135 119 -124 320 22 377 17 7 39 21 49 32 21 23 28 24 59 3z m9583 -181 c43
-83 40 -97 -9 -43 -56 63 -81 116 -82 170 -1 80 14 82 38 5 12 -39 36 -98 53
-132z m-9824 65 c-15 -49 -21 -88 -17 -111 4 -19 -1 -29 -21 -42 -36 -24 -43
-13 -17 30 12 22 21 53 21 79 0 40 13 66 33 66 4 0 5 -10 1 -22z m-276 -63
c26 -57 5 -142 -52 -218 -14 -18 -35 -53 -46 -77 -21 -45 -21 -45 -16 1 3 26
22 78 42 116 27 53 37 86 41 136 6 72 13 81 31 42z m9709 -37 c82 -91 89 -235
17 -367 -67 -123 -149 -185 -208 -157 -60 29 -135 -3 -189 -81 -69 -99 -69
-99 -64 -3 4 93 24 144 74 192 31 30 91 58 123 58 28 0 25 19 -5 30 -17 6 -25
17 -25 32 0 33 9 42 62 61 81 31 177 155 178 230 0 33 10 34 37 5z m-9423
-112 c17 -69 149 -167 244 -182 58 -9 57 -41 -1 -36 -28 3 -37 0 -37 -12 0
-11 10 -16 33 -16 81 -1 165 -71 192 -162 25 -85 16 -116 -19 -63 -51 78 -170
102 -226 46 -29 -29 -29 -29 -88 -1 -140 66 -209 257 -143 398 27 58 36 63 45
28z m8962 -87 c22 -18 17 -29 -15 -29 -16 0 -74 -18 -129 -40 -59 -24 -115
-40 -138 -40 -39 1 -39 1 16 28 30 15 75 41 100 58 65 45 129 54 166 23z
m-8340 -30 c34 -16 81 -31 104 -35 28 -5 37 -10 28 -15 -24 -16 -120 -9 -192
13 -39 12 -95 21 -124 21 -62 0 -57 15 13 41 50 18 92 12 171 -25z m8440 -29
c54 0 54 0 54 -40 0 -33 -5 -42 -27 -54 -16 -8 -43 -30 -62 -50 -35 -36 -35
-36 -88 44 -29 44 -53 82 -53 84 0 11 66 25 94 20 16 -2 53 -4 82 -4z m-8548
-25 c2 -2 -18 -35 -44 -74 -47 -70 -47 -70 -92 -31 -25 22 -49 40 -53 40 -5 0
-9 11 -9 24 0 20 8 26 53 39 44 14 132 15 145 2z m-520 -218 c15 -16 42 -37
60 -49 44 -27 46 -72 2 -48 -35 19 -32 -9 5 -41 86 -76 108 -197 56 -304 -22
-44 -45 -73 -69 -90 -48 -32 -52 -32 -41 7 29 101 -13 228 -76 228 -26 0 -77
98 -94 181 -17 79 7 175 57 232 14 16 17 14 44 -35 16 -29 41 -66 56 -81z
m9497 72 c38 -73 36 -184 -6 -286 -14 -36 -27 -53 -39 -53 -26 0 -78 -64 -86
-106 -4 -20 -4 -63 -1 -95 5 -59 5 -59 -24 -38 -125 88 -142 278 -35 378 25
24 35 51 18 51 -4 0 -13 -5 -19 -11 -8 -8 -13 -7 -19 2 -5 8 -1 17 10 23 56
33 100 71 133 115 45 59 48 60 68 20z m-9182 -110 c34 -18 157 -139 141 -139
-8 0 -58 23 -110 50 -52 28 -104 50 -114 50 -27 0 -25 24 3 38 29 14 54 14 80
1z m8907 -18 c0 -4 -17 -20 -37 -34 -21 -14 -60 -47 -88 -73 -61 -59 -106 -94
-119 -94 -5 0 0 10 11 23 11 12 39 50 62 85 24 35 57 72 74 83 32 19 97 26 97
10z m-8972 -58 c28 -9 52 -17 52 -18 0 -2 -28 -52 -62 -112 -63 -108 -63 -108
-69 -48 -7 65 -22 111 -45 136 -10 11 -13 26 -8 43 7 30 28 30 132 -1z m9000
-36 c-12 -17 -29 -53 -38 -80 -16 -49 -16 -49 -44 3 -33 61 -31 71 31 110 44
28 49 29 60 14 10 -14 8 -22 -9 -47z m198 -204 c-5 -34 -1 -71 14 -127 21 -78
20 -103 -2 -158 -15 -40 -28 -35 -28 10 0 22 -9 65 -21 98 -24 69 -22 157 4
198 27 41 40 33 33 -21z m-9474 -14 c22 -43 23 -104 2 -176 -10 -34 -14 -74
-11 -102 5 -46 5 -46 -14 -22 -36 44 -43 97 -24 184 10 48 15 95 11 119 -8 50
11 48 36 -3z m3 -6230 c44 -16 120 -35 169 -43 184 -33 215 -63 282 -281 18
-58 28 -113 28 -157 1 -75 31 -121 87 -133 28 -6 29 -8 29 -74 0 -111 -21
-164 -98 -242 -97 -98 -193 -117 -242 -49 -25 36 -20 60 21 108 33 38 39 91
13 113 -15 12 -18 11 -28 -5 -38 -64 -67 -81 -94 -54 -19 19 -14 82 9 112 25
31 21 38 -22 43 -26 2 -38 -4 -67 -34 -110 -117 -118 -277 -20 -415 30 -42
-74 -64 -142 -30 -20 9 -41 31 -50 49 -25 54 -50 38 -50 -32 0 -24 9 -45 31
-70 36 -41 22 -46 -34 -12 -80 48 -103 144 -51 206 26 31 26 31 5 57 -51 65
-7 210 90 298 64 58 103 71 170 57 69 -15 122 -14 145 4 10 8 39 15 64 15 66
0 112 16 155 53 51 44 39 69 -13 28 -53 -42 -104 -54 -213 -49 -66 3 -111 11
-152 27 -129 51 -224 187 -153 219 63 28 77 123 37 236 -27 75 -28 101 -3 90
9 -4 53 -20 97 -35z m9479 -25 c10 -25 7 -64 -10 -145 -19 -88 -14 -131 21
-183 13 -20 22 -43 19 -51 -7 -16 -70 -57 -116 -74 -41 -15 -34 -7 18 24 43
25 75 68 60 82 -3 4 -21 -7 -39 -24 -42 -40 -79 -58 -152 -73 -64 -13 -183 -7
-217 11 -36 19 -48 -8 -16 -36 93 -80 365 -47 475 57 29 28 34 29 66 19 82
-27 164 -135 175 -227 8 -76 -5 -85 -38 -27 -30 52 -103 123 -127 123 -22 0
-15 -10 37 -57 172 -155 153 -500 -33 -594 -37 -20 -39 -20 -32 -2 17 36 12
97 -9 101 -28 6 -45 -16 -23 -32 19 -14 23 -41 7 -51 -5 -3 -10 3 -10 14 0 14
-6 21 -20 21 -23 0 -26 13 -6 29 8 7 23 35 33 63 19 54 35 67 57 48 34 -28 90
42 101 126 7 49 -8 107 -37 141 -16 20 -38 -25 -25 -51 14 -28 2 -114 -20
-144 -29 -38 -47 -41 -39 -5 15 69 9 157 -14 203 -33 67 -90 134 -103 121 -7
-7 1 -22 23 -47 82 -94 96 -210 42 -342 -53 -129 -117 -201 -195 -221 -53 -13
-57 -8 -18 25 43 36 42 91 -2 86 -27 -3 -27 -3 5 43 36 50 49 55 70 24 31 -48
96 33 105 129 6 65 -16 161 -42 182 -24 20 -25 9 -3 -55 18 -53 18 -60 4 -71
-9 -6 -16 -26 -16 -46 0 -38 -32 -88 -57 -88 -12 0 -13 7 -6 33 26 101 -3 211
-72 280 -58 57 -69 30 -12 -32 75 -84 85 -182 32 -296 -51 -107 -157 -154
-229 -102 -18 13 -17 14 13 9 74 -11 130 48 93 97 -12 15 -27 25 -38 23 -69
-12 -86 -13 -119 -2 -49 16 -148 110 -174 165 -48 102 -49 199 -1 208 65 14
118 92 102 151 -12 46 -36 48 -28 3 12 -66 -40 -131 -96 -120 -34 6 -34 4 -4
52 14 21 65 120 115 219 107 213 114 222 190 222 82 1 198 24 261 53 67 31 66
31 74 11z m-9669 -342 c0 -56 41 -123 99 -163 44 -29 44 -31 5 -48 -44 -19
-134 -113 -160 -169 -29 -60 -37 -157 -16 -198 14 -27 13 -31 -4 -53 -14 -17
-19 -39 -19 -81 0 -68 -18 -72 -69 -15 -49 56 -48 160 2 160 18 0 51 51 41 66
-3 5 -14 9 -24 9 -19 0 -40 49 -40 92 0 30 38 119 61 144 11 12 18 28 14 34
-10 16 -42 -15 -66 -62 -11 -21 -26 -38 -34 -38 -37 0 -45 -128 -11 -184 21
-35 22 -42 10 -65 -19 -35 -18 -105 2 -142 15 -29 15 -30 -5 -20 -88 47 -122
266 -53 344 13 14 13 21 2 41 -27 51 50 184 135 232 11 7 16 15 12 20 -25 26
-149 -96 -163 -158 -8 -40 -24 -24 -24 25 0 134 136 273 270 276 35 1 35 1 35
-47z m1696 -142 c117 -16 169 -69 169 -171 0 -68 -3 -66 64 -35 141 66 276 68
470 6 238 -76 383 -258 346 -433 -10 -49 -14 -57 -34 -57 -20 0 -24 6 -30 48
-25 185 -209 332 -448 357 -238 25 -538 -133 -635 -335 -37 -76 -39 -183 -4
-254 20 -40 21 -50 10 -57 -20 -12 -22 -12 -59 14 -121 82 -147 226 -70 384
31 62 127 163 156 163 28 0 13 26 -21 39 -66 23 -89 127 -51 230 9 24 16 61
16 83 0 37 2 40 24 34 13 -3 56 -10 97 -16z m6539 -118 c0 -16 12 -62 26 -103
23 -65 24 -78 14 -114 -15 -52 -65 -103 -107 -111 -46 -9 -49 -20 -14 -54 147
-148 173 -409 49 -504 -34 -25 -94 -46 -86 -30 113 234 12 460 -268 598 -219
107 -509 97 -669 -23 -57 -43 -116 -125 -143 -196 -19 -53 -25 -55 -42 -15
-19 45 -7 130 26 191 118 217 531 307 794 174 55 -28 77 -26 60 5 -25 47 2
119 62 163 22 17 50 22 144 28 63 4 118 10 121 13 16 16 33 4 33 -22z m-7906
-74 c-4 -7 -12 -33 -16 -58 -5 -25 -11 -57 -15 -72 -6 -32 42 -88 76 -88 15 0
21 -6 21 -21 0 -11 4 -29 10 -39 7 -14 5 -19 -9 -23 -46 -12 9 -127 61 -127
29 0 13 -17 -23 -24 -52 -10 -103 10 -146 57 -98 106 -97 258 2 376 26 30 54
44 39 19z m1991 -139 c174 -38 315 -173 332 -319 6 -49 6 -49 -38 -60 -76 -19
-83 -22 -150 -56 -94 -47 -189 -114 -302 -213 -204 -180 -304 -244 -427 -276
-180 -47 -296 49 -225 185 19 36 93 107 126 121 35 14 37 31 5 62 -83 84 -47
259 79 382 160 157 380 221 600 174z m5365 -79 c252 -61 438 -234 448 -420 5
-77 -9 -133 -43 -183 -24 -37 -24 -37 -4 -83 27 -60 19 -103 -26 -148 -96 -96
-251 -36 -509 197 -187 168 -295 240 -431 283 -80 26 -86 43 -44 127 106 208
333 292 609 227z m-4815 -342 c48 -24 92 -63 111 -100 16 -31 20 -133 4 -123
-5 3 -10 19 -10 34 0 55 -66 93 -218 125 -44 9 -146 -14 -217 -49 -94 -45
-185 -115 -355 -270 -159 -146 -232 -201 -335 -250 -150 -73 -314 -83 -464
-31 -41 14 -87 26 -103 26 -15 0 -28 2 -28 4 0 29 178 266 199 266 5 0 6 -11
4 -24 -8 -39 25 -94 72 -121 142 -84 340 -11 600 220 269 238 457 334 630 319
39 -4 88 -15 110 -26z m4274 -49 c112 -39 172 -82 471 -339 247 -213 468 -231
510 -43 6 24 6 53 0 72 -29 103 156 -92 234 -246 37 -75 35 -81 -22 -75 -31 3
-71 -3 -120 -18 -207 -63 -464 48 -814 351 -197 172 -277 212 -418 213 -128 1
-204 -38 -249 -128 -17 -35 -31 -69 -31 -75 0 -18 -18 -13 -30 8 -53 100 76
259 245 302 44 11 162 0 224 -22z m-4302 -66 c55 -15 71 -27 52 -38 -7 -5 2
-21 25 -44 66 -68 91 -140 91 -266 0 -128 -22 -181 -98 -236 -85 -62 -143 -77
-342 -88 -200 -12 -327 -59 -510 -191 -315 -227 -460 -291 -660 -292 -144 -1
-211 22 -174 59 28 28 -5 33 -35 5 -44 -42 -92 -64 -145 -66 -42 -1 -46 1 -46
23 0 32 -21 38 -35 11 -34 -64 -204 -91 -313 -50 -87 33 -139 103 -115 156 14
30 46 30 158 -1 76 -20 147 -15 221 16 54 24 142 110 138 137 -2 9 1 27 5 39
14 43 -5 42 -47 -1 -54 -57 -131 -81 -224 -72 -81 8 -110 20 -118 47 -12 37
12 49 72 36 108 -23 214 26 228 106 7 43 3 44 -50 17 -87 -45 -213 -7 -159 47
12 12 36 17 93 17 92 1 134 25 150 84 13 46 3 56 -37 37 -53 -27 -107 15 -78
60 15 24 21 25 67 19 54 -7 124 13 152 44 36 40 28 104 -9 68 -21 -21 -75 -12
-74 12 2 28 28 41 62 30 75 -23 182 19 190 75 2 15 12 24 33 28 47 10 163 10
169 0 4 -5 -31 -47 -76 -93 -51 -51 -102 -116 -132 -167 -26 -45 -57 -91 -69
-102 -27 -24 -11 -47 21 -30 33 17 75 13 164 -16 106 -36 278 -40 368 -9 154
52 243 111 443 293 330 300 445 353 644 296z m4273 -69 c67 -26 165 -93 255
-174 217 -195 428 -324 609 -372 89 -23 144 -23 241 2 90 23 119 24 164 9 18
-6 35 -8 38 -5 15 14 -40 146 -92 225 -31 46 -54 86 -51 88 12 12 137 14 189
3 48 -10 57 -15 57 -33 0 -12 4 -27 8 -34 10 -16 125 -53 167 -53 24 0 35 -4
35 -15 0 -8 9 -15 20 -15 11 0 20 -7 20 -15 0 -20 -75 -20 -114 0 -37 19 -56
13 -56 -18 0 -52 87 -98 194 -103 78 -3 102 -17 72 -40 -25 -18 -91 -9 -129
17 -33 24 -47 18 -47 -20 0 -67 96 -120 214 -121 85 0 116 -14 116 -53 0 -61
-144 -57 -191 5 -40 52 -56 -45 -16 -102 45 -67 143 -94 305 -84 103 7 103 7
96 -22 -9 -40 -21 -52 -73 -79 -104 -52 -236 -56 -319 -10 -60 34 -83 33 -51
-1 24 -25 24 -26 5 -40 -45 -32 -135 -8 -193 52 -24 24 -45 44 -48 44 -12 0
-4 -39 10 -50 24 -20 14 -53 -20 -69 -98 -47 -345 15 -575 144 -167 94 -254
118 -506 140 -219 18 -240 21 -334 47 -306 83 -462 281 -405 513 22 90 72 192
103 213 81 53 206 64 302 26z m-5923 -138 c61 -1 66 -9 21 -32 -43 -22 -245
-2 -208 21 22 14 82 23 110 17 14 -3 49 -6 77 -6z m7449 -115 c58 -11 164 -49
164 -59 0 -13 -175 4 -212 21 -37 15 -45 26 -31 40 9 9 21 9 79 -2z m-7583
-30 c37 -1 34 -15 -9 -36 -30 -14 -49 -16 -113 -9 -42 5 -84 7 -93 6 -30 -3
-20 8 25 29 32 14 57 18 102 15 33 -3 72 -5 88 -5z m7667 -148 c30 -2 62 -7
70 -10 8 -3 44 -6 80 -7 53 -2 143 -30 128 -40 -14 -10 -288 13 -314 26 -39
21 -70 56 -39 44 11 -4 45 -10 75 -13z m-7753 -58 c-14 -42 -113 -57 -212 -32
-60 15 -60 15 -25 30 40 18 243 20 237 2z m7857 -95 c30 0 57 -4 60 -9 3 -5
32 -12 63 -16 101 -12 115 -17 68 -29 -115 -27 -273 5 -283 58 -3 15 -1 16 16
7 12 -6 45 -11 76 -11z m-7994 -84 c25 0 61 3 80 8 35 8 35 8 11 -18 -36 -38
-83 -50 -165 -41 -39 4 -100 10 -136 14 -65 7 -65 7 -20 29 39 20 54 22 115
16 39 -4 90 -7 115 -8z m8069 -122 c24 -8 57 -14 72 -14 15 0 31 -4 34 -10 3
-5 38 -10 77 -10 91 0 180 -25 219 -60 36 -35 39 -59 3 -31 -41 32 -88 40
-229 38 -166 -2 -228 20 -250 92 -6 21 -5 23 11 16 11 -4 39 -14 63 -21z
m-7914 -54 c-81 -82 -216 -110 -327 -66 -47 18 -144 19 -193 2 -14 -6 -12 0 9
17 46 40 96 48 281 45 158 -3 173 -1 210 18 59 32 63 29 20 -16z"/>
<path d="M5093 14610 c-96 -43 -115 -173 -32 -216 52 -26 121 22 94 65 -10 17
-25 13 -25 -7 0 -10 -5 -23 -12 -30 -32 -32 -78 9 -78 69 0 125 188 144 241
24 11 -25 24 -43 30 -40 35 23 -30 116 -97 139 -60 20 -69 20 -121 -4z"/>
<path d="M5440 14600 c-25 -25 -26 -62 -2 -83 56 -51 124 30 69 81 -29 27 -41
28 -67 2z"/>
<path d="M4781 14506 c-32 -34 -26 -87 11 -100 58 -20 92 58 45 102 -29 27
-29 27 -56 -2z"/>
<path d="M6103 14495 c-27 -19 -32 -75 -9 -94 47 -39 106 22 75 77 -18 33 -37
37 -66 17z"/>
<path d="M3881 14264 c-26 -33 -27 -56 -3 -77 55 -50 115 30 62 83 -26 26 -34
25 -59 -6z"/>
<path d="M6886 14249 c-32 -38 -33 -53 -1 -85 30 -30 51 -28 78 8 23 30 11 80
-24 98 -24 14 -24 14 -53 -21z"/>
<path d="M5406 14282 c-9 -15 9 -49 34 -62 31 -17 85 -12 114 11 39 30 19 43
-29 20 -44 -21 -66 -16 -96 22 -11 13 -18 16 -23 9z"/>
<path d="M5339 14169 c-26 -26 -21 -49 12 -68 49 -28 106 38 67 77 -18 18 -56
14 -79 -9z"/>
<path d="M5552 14178 c-21 -21 -14 -57 13 -70 29 -13 72 1 81 27 15 38 -64 73
-94 43z"/>
<path d="M4842 14024 c-42 -29 -17 -82 33 -70 36 9 51 43 29 67 -21 23 -33 24
-62 3z"/>
<path d="M6096 14028 c-16 -23 -7 -54 19 -64 18 -7 52 12 66 38 23 43 -56 68
-85 26z"/>
<path d="M3802 13798 c-25 -25 1 -78 40 -78 38 0 65 71 32 84 -25 10 -59 7
-72 -6z"/>
<path d="M4005 13796 c-16 -12 -18 -19 -10 -43 12 -34 48 -42 76 -17 50 45
-11 100 -66 60z"/>
<path d="M6762 13777 c-20 -21 -21 -25 -6 -46 22 -31 65 -25 78 12 17 47 -36
72 -72 34z"/>
<path d="M6952 13778 c-23 -23 1 -78 35 -78 10 0 53 42 53 52 0 30 -65 49 -88
26z"/>
<path d="M4594 13340 c-8 -8 -8 -21 2 -48 19 -54 17 -113 -7 -176 -51 -133 27
-216 203 -216 93 0 168 -22 205 -59 28 -27 32 -28 99 -24 67 5 70 4 114 -31
48 -38 89 -46 110 -20 21 24 16 71 -10 99 -28 30 -40 31 -47 5 -3 -11 -9 -20
-14 -20 -11 0 -39 66 -39 94 0 35 -37 84 -78 105 -22 11 -42 27 -46 36 -3 9
-10 13 -16 10 -16 -10 -11 -44 11 -74 24 -32 22 -59 -4 -75 -25 -15 -57 24
-57 69 0 45 -37 96 -92 125 -28 14 -48 33 -50 44 -5 31 -23 29 -35 -4 -12 -32
-33 -41 -33 -14 0 32 -40 72 -91 90 -49 18 -73 36 -102 77 -9 13 -15 15 -23 7z
m100 -104 c84 -34 91 -44 88 -121 -3 -75 11 -96 77 -116 74 -22 97 29 36 78
-51 40 -49 69 3 46 66 -30 92 -61 92 -111 0 -46 40 -102 73 -102 34 0 69 42
64 76 -4 26 -3 32 9 27 18 -7 54 -75 54 -103 0 -58 56 -113 85 -83 19 18 38 3
32 -27 -4 -26 -35 -22 -80 9 -55 40 -94 51 -148 41 -39 -7 -47 -5 -76 20 -43
38 -124 60 -223 60 -159 0 -207 61 -159 202 11 35 19 77 17 95 -2 18 -4 33 -3
33 0 0 26 -11 59 -24z"/>
<path d="M5457 13320 c-8 -19 -35 -50 -61 -69 -162 -121 -152 -303 22 -399 60
-32 52 -10 -14 39 -123 94 -126 231 -6 326 26 20 55 46 65 57 11 12 21 16 25
10 4 -5 31 -27 61 -49 117 -85 132 -229 32 -317 -98 -87 -116 -106 -108 -115
7 -6 81 53 138 109 104 103 79 260 -57 354 -30 21 -54 40 -54 44 0 3 -6 15
-14 25 -13 18 -15 18 -29 -15z"/>
<path d="M5442 13120 c-122 -74 -55 -256 73 -198 54 24 73 113 34 162 -37 47
-70 58 -107 36z m72 -41 c50 -39 22 -139 -40 -139 -64 0 -89 86 -39 135 29 30
45 31 79 4z"/>
<path d="M6845 12731 c-47 -21 -71 -61 -54 -92 7 -15 7 -24 -1 -34 -24 -29 -1
-65 41 -65 64 0 88 -52 44 -95 -28 -29 -38 -31 -60 -9 -11 12 -20 13 -27 6
-18 -18 -4 -47 30 -61 55 -25 53 -91 -3 -91 -44 0 -47 -50 -6 -91 88 -88 205
21 232 218 29 202 -76 369 -196 314z m108 -48 c122 -128 59 -483 -85 -483 -25
0 -58 27 -58 47 0 7 8 13 17 13 47 0 79 74 50 114 -12 16 -10 22 15 46 52 53
23 150 -46 150 -36 0 -42 18 -9 26 44 10 73 43 73 81 0 40 8 41 43 6z"/>
<path d="M3893 12700 c-18 -11 -44 -42 -60 -72 -39 -73 -41 -277 -4 -370 41
-104 113 -135 169 -72 23 26 30 78 12 89 -21 13 -9 52 25 85 19 19 35 42 35
52 0 19 -15 24 -25 8 -9 -15 -51 -12 -65 5 -35 42 -7 93 53 97 37 3 42 6 45
31 2 15 -2 27 -8 27 -6 0 -8 10 -4 25 22 87 -88 148 -173 95z m79 -22 c-30
-30 -7 -93 38 -103 41 -9 48 -25 10 -25 -83 0 -112 -118 -38 -156 29 -15 29
-15 8 -41 -24 -31 -25 -54 -5 -94 15 -28 14 -30 -9 -54 -33 -33 -52 -32 -87 6
-42 45 -54 98 -54 239 0 135 16 188 67 224 27 19 89 23 70 4z"/>
<path d="M4220 12140 c-11 -7 -12 -13 -2 -36 8 -16 10 -43 6 -70 -9 -60 12
-90 71 -105 67 -17 101 -85 60 -119 -17 -14 -20 -30 -5 -30 20 0 50 41 50 68
0 48 -34 90 -84 103 -61 15 -69 27 -61 92 7 54 7 54 48 46 47 -8 98 -56 91
-86 -2 -10 5 -33 16 -50 39 -65 138 -34 128 39 -6 41 13 30 39 -21 30 -59 51
-80 98 -102 40 -18 40 -18 -54 -18 -75 -1 -98 2 -113 16 -18 16 -20 15 -48
-18 -45 -53 -70 -112 -61 -145 10 -39 36 -46 28 -7 -11 58 52 154 90 135 16
-8 94 -15 159 -15 93 2 187 61 182 115 -3 35 -28 52 -28 19 0 -49 -117 -75
-173 -38 -15 9 -38 39 -51 66 -14 26 -36 55 -50 64 -47 31 -95 14 -62 -22 37
-40 1 -97 -44 -69 -21 13 -36 45 -26 55 22 22 -58 99 -113 109 -20 4 -45 13
-56 20 -13 8 -26 10 -35 4z"/>
<path d="M4135 12111 c-3 -6 -1 -20 5 -31 15 -28 -4 -62 -33 -58 -18 2 -22 10
-22 38 0 44 -16 54 -29 18 -13 -36 6 -76 39 -84 36 -9 75 28 75 72 0 33 -23
63 -35 45z"/>
<path d="M6736 12069 c4 -30 2 -49 -5 -54 -17 -10 -42 15 -39 38 4 30 -20 32
-28 2 -13 -54 59 -88 90 -43 21 30 20 51 -4 79 -21 24 -21 24 -14 -22z"/>
<path d="M4012 11860 c-18 -29 -15 -74 6 -93 52 -48 129 17 101 85 -16 38 -33
36 -25 -3 7 -38 -8 -69 -34 -69 -24 0 -42 31 -29 51 11 17 12 49 1 49 -4 0
-13 -9 -20 -20z"/>
<path d="M6826 11765 c-25 -38 -18 -80 14 -80 23 0 25 3 25 49 0 57 -15 68
-39 31z"/>
<path d="M5942 12508 c-27 -27 -7 -78 29 -78 16 0 49 35 49 52 0 29 -56 48
-78 26z"/>
<path d="M4897 12504 c-28 -29 8 -80 48 -70 41 10 32 70 -10 74 -17 2 -34 0
-38 -4z"/>
<path d="M5537 12310 c-21 -4 -51 -17 -67 -29 -36 -26 -36 -26 -72 4 -27 23
-38 26 -92 23 -72 -4 -73 -18 -2 -36 81 -20 100 -39 106 -105 8 -85 40 -94 40
-11 0 25 5 54 11 66 12 22 107 68 141 68 17 0 18 2 8 15 -13 16 -16 16 -73 5z"/>
<path d="M5578 12179 c-21 -12 -25 -74 -5 -86 35 -22 103 19 90 55 -13 37 -51
51 -85 31z"/>
<path d="M5186 12165 c-36 -37 -5 -85 54 -82 40 2 64 43 44 75 -15 23 -77 28
-98 7z"/>
<path d="M906 10747 c-26 -19 -24 -76 4 -99 29 -23 51 -23 78 2 59 55 -17 145
-82 97z"/>
<path d="M9692 10743 c-32 -28 -38 -67 -13 -92 44 -44 111 -16 111 46 0 55
-56 81 -98 46z"/>
<path d="M560 2473 c0 -10 -3 -28 -6 -41 -17 -62 146 -139 274 -129 94 7 212
71 185 98 -9 9 -20 5 -43 -15 -71 -59 -278 -18 -364 73 -34 35 -46 39 -46 14z"/>
<path d="M451 1994 c-16 -20 -20 -40 -20 -102 0 -87 13 -115 66 -149 43 -29
53 -29 53 -2 0 12 7 27 17 34 21 15 10 45 -16 45 -35 0 -65 64 -63 136 1 70
-6 77 -37 38z"/>
<path d="M10001 2466 c-61 -65 -256 -98 -334 -58 -38 20 -62 12 -36 -13 44
-40 203 -48 293 -14 59 22 116 67 116 93 0 23 -13 20 -39 -8z"/>
<path d="M9788 2054 c-4 -3 5 -22 18 -41 30 -45 33 -121 6 -146 -29 -27 -35
-20 -11 12 13 17 19 36 15 46 -8 23 -29 14 -36 -16 -3 -13 -17 -30 -30 -37
-25 -12 -37 -12 -72 3 -40 16 -16 -24 27 -45 129 -62 217 98 117 213 -16 18
-25 21 -34 11z"/>
<path d="M2066 2129 c-48 -38 -26 -119 33 -119 28 0 71 42 71 70 0 24 -42 70
-63 70 -8 0 -26 -9 -41 -21z"/>
<path d="M8480 2043 c-44 -16 -53 -77 -17 -111 46 -44 110 -15 110 50 0 48
-45 78 -93 61z"/>
<path d="M1790 980 c-24 -24 -25 -38 -4 -68 27 -38 94 -15 94 33 0 51 -54 71
-90 35z"/>
<path d="M8586 979 c-15 -12 -26 -30 -26 -44 0 -22 41 -65 62 -65 5 0 20 11
34 25 29 29 26 59 -10 87 -27 22 -28 22 -60 -3z"/>
<path d="M6405 1471 c-21 -66 -274 -153 -398 -136 -66 8 -59 -12 14 -42 80
-33 223 -28 359 13 59 18 138 84 124 105 -5 8 -13 4 -27 -15 -42 -59 -168 -96
-317 -95 -95 1 -95 1 -30 14 164 33 300 106 300 162 0 20 -18 15 -25 -6z"/>
<path d="M5150 1315 c-50 -52 -123 -85 -187 -85 -30 0 -53 -4 -53 -11 0 -18
72 -41 116 -36 33 3 41 1 37 -9 -6 -16 -117 -71 -162 -80 -72 -15 -60 -53 22
-75 70 -19 137 1 199 59 28 25 28 25 48 0 45 -58 141 -70 201 -25 35 25 39 52
8 42 -78 -25 -189 72 -189 164 0 41 15 47 30 11 30 -72 137 -132 201 -114 49
14 49 34 1 34 -29 0 -49 7 -70 25 -37 31 -45 31 -37 4 18 -55 -60 30 -90 99
-18 41 -33 40 -75 -3z m-4 -120 c-9 -21 -16 -46 -16 -55 0 -53 -124 -112 -199
-95 -32 7 -43 25 -15 25 46 0 165 72 201 121 40 57 51 58 29 4z m53 -36 c14
-32 83 -89 108 -89 8 0 11 -4 8 -10 -3 -5 -17 -10 -31 -10 -61 0 -126 63 -117
113 7 35 15 34 32 -4z"/>
<path d="M6500 1264 c0 -3 13 -22 30 -42 72 -90 96 -221 53 -281 -26 -35 -30
-56 -8 -47 8 3 19 -3 25 -14 23 -44 2 -113 -44 -144 -34 -21 -39 -20 -25 5 15
28 6 107 -15 127 -23 24 -28 10 -10 -27 21 -42 6 -100 -33 -131 -41 -32 -17
-48 41 -26 95 36 146 131 109 204 -17 35 -17 42 -5 73 28 67 -7 200 -72 277
-25 29 -46 41 -46 26z"/>
<path d="M6274 1248 c-4 -7 1 -17 11 -22 87 -49 122 -178 75 -271 -25 -49 -25
-51 0 -58 47 -12 49 -103 4 -157 -33 -39 -44 -38 -37 4 5 34 -10 76 -27 76 -6
0 -8 -16 -4 -41 6 -32 3 -46 -15 -70 -26 -35 -19 -53 17 -44 94 24 151 152
102 232 -15 26 -17 38 -9 65 18 64 11 150 -17 205 -27 55 -87 103 -100 81z"/>
<path d="M4228 1180 c-78 -42 -100 -114 -57 -195 28 -54 37 -61 51 -47 9 9 9
15 0 24 -32 32 12 160 64 189 29 15 30 25 5 39 -24 12 -18 13 -63 -10z"/>
<path d="M6220 1187 c0 -7 4 -17 9 -22 5 -6 14 -35 20 -66 13 -73 0 -122 -45
-167 -58 -58 -31 -67 47 -17 86 56 105 208 32 265 -29 23 -63 27 -63 7z"/>
<path d="M5930 816 c0 -2 7 -20 15 -39 21 -51 19 -86 -10 -142 -27 -54 -25
-68 5 -40 51 46 51 225 -1 225 -5 0 -9 -2 -9 -4z"/>
<path d="M5104 796 c-13 -35 39 -83 135 -122 48 -20 52 -24 27 -24 -35 0 -115
37 -123 56 -9 25 -20 15 -47 -41 -15 -30 -41 -64 -57 -76 -30 -21 -30 -21 6
44 35 64 50 137 30 147 -5 3 -13 -14 -17 -38 -11 -66 -48 -130 -102 -178 -56
-48 -48 -66 20 -44 35 12 127 94 149 133 9 16 12 16 52 -3 64 -32 140 -37 196
-12 71 31 63 53 -15 46 -85 -8 -228 55 -228 101 0 20 -19 29 -26 11z"/>
<path d="M5867 741 c5 -50 2 -65 -17 -95 -17 -28 -18 -36 -7 -36 37 0 66 91
48 150 -17 59 -30 49 -24 -19z"/>
<path d="M6155 780 c18 -57 -2 -168 -41 -227 -13 -21 -13 -23 1 -23 27 0 67
102 67 170 0 64 -8 100 -23 100 -6 0 -8 -9 -4 -20z"/>
<path d="M5773 570 c-15 -6 -21 -15 -17 -24 10 -25 -41 -99 -86 -126 -95 -57
-107 -74 -65 -90 45 -17 73 -103 55 -170 -15 -55 0 -71 29 -34 46 58 48 142 4
203 -12 18 -13 26 -5 29 87 29 152 119 133 183 -13 42 -14 43 -48 29z"/>
<path d="M5109 563 c-1 -5 0 -18 1 -31 3 -42 -21 -90 -66 -131 -24 -23 -44
-46 -44 -51 0 -36 135 37 159 86 16 31 17 32 73 26 67 -6 127 13 171 54 34 31
24 54 -14 33 -36 -20 -186 -18 -226 4 -34 18 -52 21 -54 10z"/>
<path d="M5415 371 c-3 -5 8 -19 25 -31 39 -28 57 -87 42 -137 -13 -43 -5 -64
15 -38 24 34 17 129 -13 164 -31 37 -60 55 -69 42z"/>
</g>
</svg>
